<svg width="583" height="24" viewBox="0 0 583 24" fill="none" xmlns="http://www.w3.org/2000/svg">
<path d="M9.64 23.4H8.08L0.16 0.791998H1.72L9.64 23.4ZM23.9603 23.4H22.4003L14.4803 0.791998H16.0403L23.9603 23.4ZM38.2806 23.4H36.7206L28.8006 0.791998H30.3606L38.2806 23.4ZM52.6009 23.4H51.0409L43.1209 0.791998H44.6809L52.6009 23.4ZM66.9213 23.4H65.3613L57.4412 0.791998H59.0013L66.9213 23.4ZM81.2416 23.4H79.6816L71.7616 0.791998H73.3216L81.2416 23.4ZM95.5619 23.4H94.0019L86.0819 0.791998H87.6419L95.5619 23.4ZM109.882 23.4H108.322L100.402 0.791998H101.962L109.882 23.4ZM124.203 23.4H122.643L114.722 0.791998H116.283L124.203 23.4ZM138.523 23.4H136.963L129.043 0.791998H130.603L138.523 23.4ZM152.843 23.4H151.283L143.363 0.791998H144.923L152.843 23.4ZM167.163 23.4H165.603L157.683 0.791998H159.243L167.163 23.4ZM181.484 23.4H179.924L172.004 0.791998H173.564L181.484 23.4ZM195.804 23.4H194.244L186.324 0.791998H187.884L195.804 23.4ZM210.124 23.4H208.564L200.644 0.791998H202.204L210.124 23.4ZM224.445 23.4H222.885L214.965 0.791998H216.525L224.445 23.4ZM238.765 23.4H237.205L229.285 0.791998H230.845L238.765 23.4ZM253.085 23.4H251.525L243.605 0.791998H245.165L253.085 23.4ZM267.406 23.4H265.846L257.926 0.791998H259.486L267.406 23.4ZM281.726 23.4H280.166L272.246 0.791998H273.806L281.726 23.4ZM296.046 23.4H294.486L286.566 0.791998H288.126L296.046 23.4ZM310.367 23.4H308.807L300.887 0.791998H302.447L310.367 23.4ZM324.687 23.4H323.127L315.207 0.791998H316.767L324.687 23.4ZM339.007 23.4H337.447L329.527 0.791998H331.087L339.007 23.4ZM353.328 23.4H351.768L343.847 0.791998H345.408L353.328 23.4ZM367.648 23.4H366.088L358.168 0.791998H359.728L367.648 23.4ZM381.968 23.4H380.408L372.488 0.791998H374.048L381.968 23.4ZM396.288 23.4H394.728L386.808 0.791998H388.368L396.288 23.4ZM410.609 23.4H409.049L401.129 0.791998H402.689L410.609 23.4ZM424.929 23.4H423.369L415.449 0.791998H417.009L424.929 23.4ZM439.249 23.4H437.689L429.769 0.791998H431.329L439.249 23.4ZM453.57 23.4H452.01L444.09 0.791998H445.65L453.57 23.4ZM467.89 23.4H466.33L458.41 0.791998H459.97L467.89 23.4ZM482.21 23.4H480.65L472.73 0.791998H474.29L482.21 23.4ZM496.531 23.4H494.971L487.051 0.791998H488.611L496.531 23.4ZM510.851 23.4H509.291L501.371 0.791998H502.931L510.851 23.4ZM525.171 23.4H523.611L515.691 0.791998H517.251L525.171 23.4ZM539.492 23.4H537.932L530.012 0.791998H531.572L539.492 23.4ZM553.812 23.4H552.252L544.332 0.791998H545.892L553.812 23.4ZM568.132 23.4H566.572L558.652 0.791998H560.212L568.132 23.4ZM582.453 23.4H580.893L572.972 0.791998H574.533L582.453 23.4Z" fill="white"/>
</svg>
