<svg width="433" height="321" viewBox="0 0 433 321" fill="none" xmlns="http://www.w3.org/2000/svg">
<rect width="417" height="60" fill="#414141"/>
<path d="M28.736 38V21.2H35.024C36.448 21.2 37.672 21.432 38.696 21.896C39.72 22.344 40.504 23 41.048 23.864C41.608 24.712 41.888 25.744 41.888 26.96C41.888 28.144 41.608 29.168 41.048 30.032C40.504 30.88 39.72 31.536 38.696 32C37.672 32.448 36.448 32.672 35.024 32.672H29.72L30.512 31.856V38H28.736ZM40.208 38L35.888 31.904H37.808L42.152 38H40.208ZM30.512 32L29.72 31.16H34.976C36.656 31.16 37.928 30.792 38.792 30.056C39.672 29.32 40.112 28.288 40.112 26.96C40.112 25.616 39.672 24.576 38.792 23.84C37.928 23.104 36.656 22.736 34.976 22.736H29.72L30.512 21.896V32ZM51.0718 38.12C49.7598 38.12 48.6078 37.848 47.6158 37.304C46.6238 36.744 45.8478 35.984 45.2878 35.024C44.7278 34.048 44.4478 32.936 44.4478 31.688C44.4478 30.44 44.7118 29.336 45.2398 28.376C45.7838 27.416 46.5198 26.664 47.4478 26.12C48.3918 25.56 49.4478 25.28 50.6158 25.28C51.7998 25.28 52.8478 25.552 53.7598 26.096C54.6878 26.624 55.4158 27.376 55.9438 28.352C56.4718 29.312 56.7358 30.424 56.7358 31.688C56.7358 31.768 56.7278 31.856 56.7118 31.952C56.7118 32.032 56.7118 32.12 56.7118 32.216H45.7438V30.944H55.7998L55.1278 31.448C55.1278 30.536 54.9278 29.728 54.5278 29.024C54.1438 28.304 53.6158 27.744 52.9438 27.344C52.2718 26.944 51.4958 26.744 50.6158 26.744C49.7518 26.744 48.9758 26.944 48.2878 27.344C47.5998 27.744 47.0638 28.304 46.6798 29.024C46.2958 29.744 46.1038 30.568 46.1038 31.496V31.76C46.1038 32.72 46.3118 33.568 46.7278 34.304C47.1598 35.024 47.7518 35.592 48.5038 36.008C49.2718 36.408 50.1438 36.608 51.1198 36.608C51.8878 36.608 52.5998 36.472 53.2558 36.2C53.9278 35.928 54.5038 35.512 54.9838 34.952L55.9438 36.056C55.3838 36.728 54.6798 37.24 53.8318 37.592C52.9998 37.944 52.0798 38.12 51.0718 38.12ZM65.5801 42.776C64.4281 42.776 63.3241 42.608 62.2681 42.272C61.2121 41.936 60.3561 41.456 59.7001 40.832L60.5641 39.536C61.1561 40.064 61.8841 40.48 62.7481 40.784C63.6281 41.104 64.5561 41.264 65.5321 41.264C67.1321 41.264 68.3081 40.888 69.0601 40.136C69.8121 39.4 70.1881 38.248 70.1881 36.68V33.536L70.4281 31.376L70.2601 29.216V25.4H71.8921V36.464C71.8921 38.64 71.3561 40.232 70.2841 41.24C69.2281 42.264 67.6601 42.776 65.5801 42.776ZM65.2681 37.52C64.0681 37.52 62.9881 37.264 62.0281 36.752C61.0681 36.224 60.3081 35.496 59.7481 34.568C59.2041 33.64 58.9321 32.576 58.9321 31.376C58.9321 30.176 59.2041 29.12 59.7481 28.208C60.3081 27.28 61.0681 26.56 62.0281 26.048C62.9881 25.536 64.0681 25.28 65.2681 25.28C66.3881 25.28 67.3961 25.512 68.2921 25.976C69.1881 26.44 69.9001 27.128 70.4281 28.04C70.9561 28.952 71.2201 30.064 71.2201 31.376C71.2201 32.688 70.9561 33.8 70.4281 34.712C69.9001 35.624 69.1881 36.32 68.2921 36.8C67.3961 37.28 66.3881 37.52 65.2681 37.52ZM65.4361 36.008C66.3641 36.008 67.1881 35.816 67.9081 35.432C68.6281 35.032 69.1961 34.488 69.6121 33.8C70.0281 33.096 70.2361 32.288 70.2361 31.376C70.2361 30.464 70.0281 29.664 69.6121 28.976C69.1961 28.288 68.6281 27.752 67.9081 27.368C67.1881 26.968 66.3641 26.768 65.4361 26.768C64.5241 26.768 63.7001 26.968 62.9641 27.368C62.2441 27.752 61.6761 28.288 61.2601 28.976C60.8601 29.664 60.6601 30.464 60.6601 31.376C60.6601 32.288 60.8601 33.096 61.2601 33.8C61.6761 34.488 62.2441 35.032 62.9641 35.432C63.7001 35.816 64.5241 36.008 65.4361 36.008ZM81.8418 38.12C80.7698 38.12 79.8338 37.92 79.0338 37.52C78.2338 37.12 77.6098 36.52 77.1618 35.72C76.7298 34.92 76.5138 33.92 76.5138 32.72V25.4H78.2178V32.528C78.2178 33.872 78.5458 34.888 79.2018 35.576C79.8738 36.248 80.8098 36.584 82.0098 36.584C82.8898 36.584 83.6498 36.408 84.2898 36.056C84.9458 35.688 85.4418 35.16 85.7778 34.472C86.1298 33.784 86.3058 32.96 86.3058 32V25.4H88.0098V38H86.3778V34.544L86.6418 35.168C86.2418 36.096 85.6178 36.824 84.7698 37.352C83.9378 37.864 82.9618 38.12 81.8418 38.12ZM92.7588 38V20.192H94.4628V38H92.7588ZM107.1 38V35.216L107.028 34.76V30.104C107.028 29.032 106.724 28.208 106.116 27.632C105.524 27.056 104.636 26.768 103.452 26.768C102.636 26.768 101.86 26.904 101.124 27.176C100.388 27.448 99.7641 27.808 99.2521 28.256L98.4841 26.984C99.1241 26.44 99.8921 26.024 100.788 25.736C101.684 25.432 102.628 25.28 103.62 25.28C105.252 25.28 106.508 25.688 107.388 26.504C108.284 27.304 108.732 28.528 108.732 30.176V38H107.1ZM102.756 38.12C101.812 38.12 100.988 37.968 100.284 37.664C99.5961 37.344 99.0681 36.912 98.7001 36.368C98.3321 35.808 98.1481 35.168 98.1481 34.448C98.1481 33.792 98.3001 33.2 98.6041 32.672C98.9241 32.128 99.4361 31.696 100.14 31.376C100.86 31.04 101.82 30.872 103.02 30.872H107.364V32.144H103.068C101.852 32.144 101.004 32.36 100.524 32.792C100.06 33.224 99.8281 33.76 99.8281 34.4C99.8281 35.12 100.108 35.696 100.668 36.128C101.228 36.56 102.012 36.776 103.02 36.776C103.98 36.776 104.804 36.56 105.492 36.128C106.196 35.68 106.708 35.04 107.028 34.208L107.412 35.384C107.092 36.216 106.532 36.88 105.732 37.376C104.948 37.872 103.956 38.12 102.756 38.12ZM113.36 38V25.4H114.992V28.832L114.824 28.232C115.176 27.272 115.768 26.544 116.6 26.048C117.432 25.536 118.464 25.28 119.696 25.28V26.936C119.632 26.936 119.568 26.936 119.504 26.936C119.44 26.92 119.376 26.912 119.312 26.912C117.984 26.912 116.944 27.32 116.192 28.136C115.44 28.936 115.064 30.08 115.064 31.568V38H113.36ZM129.634 38V21.2H131.098L138.778 34.304H138.01L145.618 21.2H147.082V38H145.378V23.864H145.786L138.778 35.864H137.938L130.882 23.864H131.338V38H129.634ZM157.548 38.12C156.236 38.12 155.084 37.848 154.092 37.304C153.1 36.744 152.324 35.984 151.764 35.024C151.204 34.048 150.924 32.936 150.924 31.688C150.924 30.44 151.188 29.336 151.716 28.376C152.26 27.416 152.996 26.664 153.924 26.12C154.868 25.56 155.924 25.28 157.092 25.28C158.276 25.28 159.324 25.552 160.236 26.096C161.164 26.624 161.892 27.376 162.42 28.352C162.948 29.312 163.212 30.424 163.212 31.688C163.212 31.768 163.204 31.856 163.188 31.952C163.188 32.032 163.188 32.12 163.188 32.216H152.22V30.944H162.276L161.604 31.448C161.604 30.536 161.404 29.728 161.004 29.024C160.62 28.304 160.092 27.744 159.42 27.344C158.748 26.944 157.972 26.744 157.092 26.744C156.228 26.744 155.452 26.944 154.764 27.344C154.076 27.744 153.54 28.304 153.156 29.024C152.772 29.744 152.58 30.568 152.58 31.496V31.76C152.58 32.72 152.788 33.568 153.204 34.304C153.636 35.024 154.228 35.592 154.98 36.008C155.748 36.408 156.62 36.608 157.596 36.608C158.364 36.608 159.076 36.472 159.732 36.2C160.404 35.928 160.98 35.512 161.46 34.952L162.42 36.056C161.86 36.728 161.156 37.24 160.308 37.592C159.476 37.944 158.556 38.12 157.548 38.12ZM173.113 25.28C174.137 25.28 175.033 25.48 175.801 25.88C176.585 26.264 177.193 26.856 177.625 27.656C178.073 28.456 178.297 29.464 178.297 30.68V38H176.593V30.848C176.593 29.52 176.257 28.52 175.585 27.848C174.929 27.16 174.001 26.816 172.801 26.816C171.905 26.816 171.121 27 170.449 27.368C169.793 27.72 169.281 28.24 168.913 28.928C168.561 29.6 168.385 30.416 168.385 31.376V38H166.681V25.4H168.313V28.856L168.049 28.208C168.449 27.296 169.089 26.584 169.969 26.072C170.849 25.544 171.897 25.28 173.113 25.28ZM188.107 38.12C187.035 38.12 186.099 37.92 185.299 37.52C184.499 37.12 183.875 36.52 183.427 35.72C182.995 34.92 182.779 33.92 182.779 32.72V25.4H184.483V32.528C184.483 33.872 184.811 34.888 185.467 35.576C186.139 36.248 187.075 36.584 188.275 36.584C189.155 36.584 189.915 36.408 190.555 36.056C191.211 35.688 191.707 35.16 192.043 34.472C192.395 33.784 192.571 32.96 192.571 32V25.4H194.275V38H192.643V34.544L192.907 35.168C192.507 36.096 191.883 36.824 191.035 37.352C190.203 37.864 189.227 38.12 188.107 38.12Z" fill="white"/>
<circle cx="369.5" cy="32.5" r="2.5" fill="#D9D9D9"/>
<circle cx="379.5" cy="32.5" r="2.5" fill="#D9D9D9"/>
<circle cx="388.5" cy="32.5" r="2.5" fill="#D9D9D9"/>
<rect y="76" width="417" height="60" fill="#414141"/>
<path d="M33.368 114.144C32.12 114.144 30.92 113.944 29.768 113.544C28.632 113.128 27.752 112.6 27.128 111.96L27.824 110.592C28.416 111.168 29.208 111.656 30.2 112.056C31.208 112.44 32.264 112.632 33.368 112.632C34.424 112.632 35.28 112.504 35.936 112.248C36.608 111.976 37.096 111.616 37.4 111.168C37.72 110.72 37.88 110.224 37.88 109.68C37.88 109.024 37.688 108.496 37.304 108.096C36.936 107.696 36.448 107.384 35.84 107.16C35.232 106.92 34.56 106.712 33.824 106.536C33.088 106.36 32.352 106.176 31.616 105.984C30.88 105.776 30.2 105.504 29.576 105.168C28.968 104.832 28.472 104.392 28.088 103.848C27.72 103.288 27.536 102.56 27.536 101.664C27.536 100.832 27.752 100.072 28.184 99.384C28.632 98.68 29.312 98.12 30.224 97.704C31.136 97.272 32.304 97.056 33.728 97.056C34.672 97.056 35.608 97.192 36.536 97.464C37.464 97.72 38.264 98.08 38.936 98.544L38.336 99.96C37.616 99.48 36.848 99.128 36.032 98.904C35.232 98.68 34.456 98.568 33.704 98.568C32.696 98.568 31.864 98.704 31.208 98.976C30.552 99.248 30.064 99.616 29.744 100.08C29.44 100.528 29.288 101.04 29.288 101.616C29.288 102.272 29.472 102.8 29.84 103.2C30.224 103.6 30.72 103.912 31.328 104.136C31.952 104.36 32.632 104.56 33.368 104.736C34.104 104.912 34.832 105.104 35.552 105.312C36.288 105.52 36.96 105.792 37.568 106.128C38.192 106.448 38.688 106.88 39.056 107.424C39.44 107.968 39.632 108.68 39.632 109.56C39.632 110.376 39.408 111.136 38.96 111.84C38.512 112.528 37.824 113.088 36.896 113.52C35.984 113.936 34.808 114.144 33.368 114.144ZM48.3496 114.12C47.2776 114.12 46.3416 113.92 45.5416 113.52C44.7416 113.12 44.1176 112.52 43.6696 111.72C43.2376 110.92 43.0216 109.92 43.0216 108.72V101.4H44.7256V108.528C44.7256 109.872 45.0536 110.888 45.7096 111.576C46.3816 112.248 47.3176 112.584 48.5176 112.584C49.3976 112.584 50.1576 112.408 50.7976 112.056C51.4536 111.688 51.9496 111.16 52.2856 110.472C52.6376 109.784 52.8136 108.96 52.8136 108V101.4H54.5176V114H52.8856V110.544L53.1496 111.168C52.7496 112.096 52.1256 112.824 51.2776 113.352C50.4456 113.864 49.4696 114.12 48.3496 114.12ZM75.0106 101.28C76.0346 101.28 76.9226 101.48 77.6746 101.88C78.4426 102.264 79.0346 102.856 79.4506 103.656C79.8826 104.456 80.0986 105.464 80.0986 106.68V114H78.3946V106.848C78.3946 105.52 78.0746 104.52 77.4346 103.848C76.8106 103.16 75.9226 102.816 74.7706 102.816C73.9066 102.816 73.1546 103 72.5146 103.368C71.8906 103.72 71.4026 104.24 71.0506 104.928C70.7146 105.6 70.5466 106.416 70.5466 107.376V114H68.8426V106.848C68.8426 105.52 68.5226 104.52 67.8826 103.848C67.2426 103.16 66.3466 102.816 65.1946 102.816C64.3466 102.816 63.6026 103 62.9626 103.368C62.3226 103.72 61.8266 104.24 61.4746 104.928C61.1386 105.6 60.9706 106.416 60.9706 107.376V114H59.2666V101.4H60.8986V104.808L60.6346 104.208C61.0186 103.296 61.6346 102.584 62.4826 102.072C63.3466 101.544 64.3626 101.28 65.5306 101.28C66.7626 101.28 67.8106 101.592 68.6746 102.216C69.5386 102.824 70.0986 103.744 70.3546 104.976L69.6826 104.712C70.0506 103.688 70.6986 102.864 71.6266 102.24C72.5706 101.6 73.6986 101.28 75.0106 101.28ZM100.464 101.28C101.488 101.28 102.376 101.48 103.128 101.88C103.896 102.264 104.488 102.856 104.904 103.656C105.336 104.456 105.552 105.464 105.552 106.68V114H103.848V106.848C103.848 105.52 103.528 104.52 102.888 103.848C102.264 103.16 101.376 102.816 100.224 102.816C99.3598 102.816 98.6078 103 97.9678 103.368C97.3438 103.72 96.8558 104.24 96.5038 104.928C96.1678 105.6 95.9998 106.416 95.9998 107.376V114H94.2958V106.848C94.2958 105.52 93.9758 104.52 93.3358 103.848C92.6958 103.16 91.7998 102.816 90.6478 102.816C89.7998 102.816 89.0558 103 88.4158 103.368C87.7758 103.72 87.2798 104.24 86.9278 104.928C86.5918 105.6 86.4238 106.416 86.4238 107.376V114H84.7198V101.4H86.3518V104.808L86.0878 104.208C86.4718 103.296 87.0878 102.584 87.9358 102.072C88.7998 101.544 89.8158 101.28 90.9838 101.28C92.2158 101.28 93.2638 101.592 94.1278 102.216C94.9918 102.824 95.5518 103.744 95.8078 104.976L95.1358 104.712C95.5038 103.688 96.1518 102.864 97.0798 102.24C98.0238 101.6 99.1518 101.28 100.464 101.28ZM115.525 114.12C114.213 114.12 113.061 113.848 112.069 113.304C111.077 112.744 110.301 111.984 109.741 111.024C109.181 110.048 108.901 108.936 108.901 107.688C108.901 106.44 109.165 105.336 109.693 104.376C110.237 103.416 110.973 102.664 111.901 102.12C112.845 101.56 113.901 101.28 115.069 101.28C116.253 101.28 117.301 101.552 118.213 102.096C119.141 102.624 119.869 103.376 120.397 104.352C120.925 105.312 121.189 106.424 121.189 107.688C121.189 107.768 121.181 107.856 121.165 107.952C121.165 108.032 121.165 108.12 121.165 108.216H110.197V106.944H120.253L119.581 107.448C119.581 106.536 119.381 105.728 118.981 105.024C118.597 104.304 118.069 103.744 117.397 103.344C116.725 102.944 115.949 102.744 115.069 102.744C114.205 102.744 113.429 102.944 112.741 103.344C112.053 103.744 111.517 104.304 111.133 105.024C110.749 105.744 110.557 106.568 110.557 107.496V107.76C110.557 108.72 110.765 109.568 111.181 110.304C111.613 111.024 112.205 111.592 112.957 112.008C113.725 112.408 114.597 112.608 115.573 112.608C116.341 112.608 117.053 112.472 117.709 112.2C118.381 111.928 118.957 111.512 119.437 110.952L120.397 112.056C119.837 112.728 119.133 113.24 118.285 113.592C117.453 113.944 116.533 114.12 115.525 114.12ZM124.657 114V101.4H126.289V104.832L126.121 104.232C126.473 103.272 127.065 102.544 127.897 102.048C128.729 101.536 129.761 101.28 130.993 101.28V102.936C130.929 102.936 130.865 102.936 130.801 102.936C130.737 102.92 130.673 102.912 130.609 102.912C129.281 102.912 128.241 103.32 127.489 104.136C126.737 104.936 126.361 106.08 126.361 107.568V114H124.657ZM140.931 114V97.2H142.395L150.075 110.304H149.307L156.915 97.2H158.379V114H156.675V99.864H157.083L150.075 111.864H149.235L142.179 99.864H142.635V114H140.931ZM168.845 114.12C167.533 114.12 166.381 113.848 165.389 113.304C164.397 112.744 163.621 111.984 163.061 111.024C162.501 110.048 162.221 108.936 162.221 107.688C162.221 106.44 162.485 105.336 163.013 104.376C163.557 103.416 164.293 102.664 165.221 102.12C166.165 101.56 167.221 101.28 168.389 101.28C169.573 101.28 170.621 101.552 171.533 102.096C172.461 102.624 173.189 103.376 173.717 104.352C174.245 105.312 174.509 106.424 174.509 107.688C174.509 107.768 174.501 107.856 174.485 107.952C174.485 108.032 174.485 108.12 174.485 108.216H163.517V106.944H173.573L172.901 107.448C172.901 106.536 172.701 105.728 172.301 105.024C171.917 104.304 171.389 103.744 170.717 103.344C170.045 102.944 169.269 102.744 168.389 102.744C167.525 102.744 166.749 102.944 166.061 103.344C165.373 103.744 164.837 104.304 164.453 105.024C164.069 105.744 163.877 106.568 163.877 107.496V107.76C163.877 108.72 164.085 109.568 164.501 110.304C164.933 111.024 165.525 111.592 166.277 112.008C167.045 112.408 167.917 112.608 168.893 112.608C169.661 112.608 170.373 112.472 171.029 112.2C171.701 111.928 172.277 111.512 172.757 110.952L173.717 112.056C173.157 112.728 172.453 113.24 171.605 113.592C170.773 113.944 169.853 114.12 168.845 114.12ZM184.41 101.28C185.434 101.28 186.33 101.48 187.098 101.88C187.882 102.264 188.49 102.856 188.922 103.656C189.37 104.456 189.594 105.464 189.594 106.68V114H187.89V106.848C187.89 105.52 187.554 104.52 186.882 103.848C186.226 103.16 185.298 102.816 184.098 102.816C183.202 102.816 182.418 103 181.746 103.368C181.09 103.72 180.578 104.24 180.21 104.928C179.858 105.6 179.682 106.416 179.682 107.376V114H177.978V101.4H179.61V104.856L179.346 104.208C179.746 103.296 180.386 102.584 181.266 102.072C182.146 101.544 183.194 101.28 184.41 101.28ZM199.404 114.12C198.332 114.12 197.396 113.92 196.596 113.52C195.796 113.12 195.172 112.52 194.724 111.72C194.292 110.92 194.076 109.92 194.076 108.72V101.4H195.78V108.528C195.78 109.872 196.108 110.888 196.764 111.576C197.436 112.248 198.372 112.584 199.572 112.584C200.452 112.584 201.212 112.408 201.852 112.056C202.508 111.688 203.004 111.16 203.34 110.472C203.692 109.784 203.868 108.96 203.868 108V101.4H205.572V114H203.94V110.544L204.204 111.168C203.804 112.096 203.18 112.824 202.332 113.352C201.5 113.864 200.524 114.12 199.404 114.12Z" fill="white"/>
<circle cx="369.5" cy="108.5" r="2.5" fill="#D9D9D9"/>
<circle cx="379.5" cy="108.5" r="2.5" fill="#D9D9D9"/>
<circle cx="388.5" cy="108.5" r="2.5" fill="#D9D9D9"/>
<rect y="150" width="417" height="60" fill="#414141"/>
<path d="M33.368 188.144C32.12 188.144 30.92 187.944 29.768 187.544C28.632 187.128 27.752 186.6 27.128 185.96L27.824 184.592C28.416 185.168 29.208 185.656 30.2 186.056C31.208 186.44 32.264 186.632 33.368 186.632C34.424 186.632 35.28 186.504 35.936 186.248C36.608 185.976 37.096 185.616 37.4 185.168C37.72 184.72 37.88 184.224 37.88 183.68C37.88 183.024 37.688 182.496 37.304 182.096C36.936 181.696 36.448 181.384 35.84 181.16C35.232 180.92 34.56 180.712 33.824 180.536C33.088 180.36 32.352 180.176 31.616 179.984C30.88 179.776 30.2 179.504 29.576 179.168C28.968 178.832 28.472 178.392 28.088 177.848C27.72 177.288 27.536 176.56 27.536 175.664C27.536 174.832 27.752 174.072 28.184 173.384C28.632 172.68 29.312 172.12 30.224 171.704C31.136 171.272 32.304 171.056 33.728 171.056C34.672 171.056 35.608 171.192 36.536 171.464C37.464 171.72 38.264 172.08 38.936 172.544L38.336 173.96C37.616 173.48 36.848 173.128 36.032 172.904C35.232 172.68 34.456 172.568 33.704 172.568C32.696 172.568 31.864 172.704 31.208 172.976C30.552 173.248 30.064 173.616 29.744 174.08C29.44 174.528 29.288 175.04 29.288 175.616C29.288 176.272 29.472 176.8 29.84 177.2C30.224 177.6 30.72 177.912 31.328 178.136C31.952 178.36 32.632 178.56 33.368 178.736C34.104 178.912 34.832 179.104 35.552 179.312C36.288 179.52 36.96 179.792 37.568 180.128C38.192 180.448 38.688 180.88 39.056 181.424C39.44 181.968 39.632 182.68 39.632 183.56C39.632 184.376 39.408 185.136 38.96 185.84C38.512 186.528 37.824 187.088 36.896 187.52C35.984 187.936 34.808 188.144 33.368 188.144ZM48.4936 188.12C47.1816 188.12 46.0296 187.848 45.0376 187.304C44.0456 186.744 43.2696 185.984 42.7096 185.024C42.1496 184.048 41.8696 182.936 41.8696 181.688C41.8696 180.44 42.1336 179.336 42.6616 178.376C43.2056 177.416 43.9416 176.664 44.8696 176.12C45.8136 175.56 46.8696 175.28 48.0376 175.28C49.2216 175.28 50.2696 175.552 51.1816 176.096C52.1096 176.624 52.8376 177.376 53.3656 178.352C53.8936 179.312 54.1576 180.424 54.1576 181.688C54.1576 181.768 54.1496 181.856 54.1336 181.952C54.1336 182.032 54.1336 182.12 54.1336 182.216H43.1656V180.944H53.2216L52.5496 181.448C52.5496 180.536 52.3496 179.728 51.9496 179.024C51.5656 178.304 51.0376 177.744 50.3656 177.344C49.6936 176.944 48.9176 176.744 48.0376 176.744C47.1736 176.744 46.3976 176.944 45.7096 177.344C45.0216 177.744 44.4856 178.304 44.1016 179.024C43.7176 179.744 43.5256 180.568 43.5256 181.496V181.76C43.5256 182.72 43.7336 183.568 44.1496 184.304C44.5816 185.024 45.1736 185.592 45.9256 186.008C46.6936 186.408 47.5656 186.608 48.5416 186.608C49.3096 186.608 50.0216 186.472 50.6776 186.2C51.3496 185.928 51.9256 185.512 52.4056 184.952L53.3656 186.056C52.8056 186.728 52.1016 187.24 51.2536 187.592C50.4216 187.944 49.5016 188.12 48.4936 188.12ZM65.1704 188V185.216L65.0984 184.76V180.104C65.0984 179.032 64.7944 178.208 64.1864 177.632C63.5944 177.056 62.7064 176.768 61.5224 176.768C60.7064 176.768 59.9304 176.904 59.1944 177.176C58.4584 177.448 57.8344 177.808 57.3224 178.256L56.5544 176.984C57.1944 176.44 57.9624 176.024 58.8584 175.736C59.7544 175.432 60.6984 175.28 61.6904 175.28C63.3224 175.28 64.5784 175.688 65.4584 176.504C66.3544 177.304 66.8024 178.528 66.8024 180.176V188H65.1704ZM60.8264 188.12C59.8824 188.12 59.0584 187.968 58.3544 187.664C57.6664 187.344 57.1384 186.912 56.7704 186.368C56.4024 185.808 56.2184 185.168 56.2184 184.448C56.2184 183.792 56.3704 183.2 56.6744 182.672C56.9944 182.128 57.5064 181.696 58.2104 181.376C58.9304 181.04 59.8904 180.872 61.0904 180.872H65.4344V182.144H61.1384C59.9224 182.144 59.0744 182.36 58.5944 182.792C58.1304 183.224 57.8984 183.76 57.8984 184.4C57.8984 185.12 58.1784 185.696 58.7384 186.128C59.2984 186.56 60.0824 186.776 61.0904 186.776C62.0504 186.776 62.8744 186.56 63.5624 186.128C64.2664 185.68 64.7784 185.04 65.0984 184.208L65.4824 185.384C65.1624 186.216 64.6024 186.88 63.8024 187.376C63.0184 187.872 62.0264 188.12 60.8264 188.12ZM74.8147 188.12C73.7747 188.12 72.7907 187.976 71.8627 187.688C70.9347 187.384 70.2067 187.008 69.6787 186.56L70.4467 185.216C70.9587 185.6 71.6147 185.936 72.4147 186.224C73.2147 186.496 74.0547 186.632 74.9347 186.632C76.1347 186.632 76.9987 186.448 77.5267 186.08C78.0547 185.696 78.3187 185.192 78.3187 184.568C78.3187 184.104 78.1667 183.744 77.8627 183.488C77.5747 183.216 77.1907 183.016 76.7107 182.888C76.2307 182.744 75.6947 182.624 75.1027 182.528C74.5107 182.432 73.9187 182.32 73.3267 182.192C72.7507 182.064 72.2227 181.88 71.7427 181.64C71.2627 181.384 70.8707 181.04 70.5667 180.608C70.2787 180.176 70.1347 179.6 70.1347 178.88C70.1347 178.192 70.3267 177.576 70.7107 177.032C71.0947 176.488 71.6547 176.064 72.3907 175.76C73.1427 175.44 74.0547 175.28 75.1267 175.28C75.9427 175.28 76.7587 175.392 77.5747 175.616C78.3907 175.824 79.0627 176.104 79.5907 176.456L78.8467 177.824C78.2867 177.44 77.6867 177.168 77.0467 177.008C76.4067 176.832 75.7667 176.744 75.1267 176.744C73.9907 176.744 73.1507 176.944 72.6067 177.344C72.0787 177.728 71.8147 178.224 71.8147 178.832C71.8147 179.312 71.9587 179.688 72.2467 179.96C72.5507 180.232 72.9427 180.448 73.4227 180.608C73.9187 180.752 74.4547 180.872 75.0307 180.968C75.6227 181.064 76.2067 181.184 76.7827 181.328C77.3747 181.456 77.9107 181.64 78.3907 181.88C78.8867 182.104 79.2787 182.432 79.5667 182.864C79.8707 183.28 80.0227 183.832 80.0227 184.52C80.0227 185.256 79.8147 185.896 79.3987 186.44C78.9987 186.968 78.4067 187.384 77.6227 187.688C76.8547 187.976 75.9187 188.12 74.8147 188.12ZM88.2854 188.12C87.0694 188.12 85.9734 187.848 84.9974 187.304C84.0374 186.744 83.2774 185.984 82.7174 185.024C82.1574 184.048 81.8774 182.936 81.8774 181.688C81.8774 180.424 82.1574 179.312 82.7174 178.352C83.2774 177.392 84.0374 176.64 84.9974 176.096C85.9574 175.552 87.0534 175.28 88.2854 175.28C89.5334 175.28 90.6374 175.552 91.5974 176.096C92.5734 176.64 93.3334 177.392 93.8774 178.352C94.4374 179.312 94.7174 180.424 94.7174 181.688C94.7174 182.936 94.4374 184.048 93.8774 185.024C93.3334 185.984 92.5734 186.744 91.5974 187.304C90.6214 187.848 89.5174 188.12 88.2854 188.12ZM88.2854 186.608C89.1974 186.608 90.0054 186.408 90.7094 186.008C91.4134 185.592 91.9654 185.016 92.3654 184.28C92.7814 183.528 92.9894 182.664 92.9894 181.688C92.9894 180.696 92.7814 179.832 92.3654 179.096C91.9654 178.36 91.4134 177.792 90.7094 177.392C90.0054 176.976 89.2054 176.768 88.3094 176.768C87.4134 176.768 86.6134 176.976 85.9094 177.392C85.2054 177.792 84.6454 178.36 84.2294 179.096C83.8134 179.832 83.6054 180.696 83.6054 181.688C83.6054 182.664 83.8134 183.528 84.2294 184.28C84.6454 185.016 85.2054 185.592 85.9094 186.008C86.6134 186.408 87.4054 186.608 88.2854 186.608ZM104.628 175.28C105.652 175.28 106.548 175.48 107.316 175.88C108.1 176.264 108.708 176.856 109.14 177.656C109.588 178.456 109.812 179.464 109.812 180.68V188H108.108V180.848C108.108 179.52 107.772 178.52 107.1 177.848C106.444 177.16 105.516 176.816 104.316 176.816C103.42 176.816 102.636 177 101.964 177.368C101.308 177.72 100.796 178.24 100.428 178.928C100.076 179.6 99.9003 180.416 99.9003 181.376V188H98.1963V175.4H99.8283V178.856L99.5643 178.208C99.9643 177.296 100.604 176.584 101.484 176.072C102.364 175.544 103.412 175.28 104.628 175.28ZM122.311 188V185.216L122.239 184.76V180.104C122.239 179.032 121.935 178.208 121.327 177.632C120.735 177.056 119.847 176.768 118.663 176.768C117.847 176.768 117.071 176.904 116.335 177.176C115.599 177.448 114.975 177.808 114.463 178.256L113.695 176.984C114.335 176.44 115.103 176.024 115.999 175.736C116.895 175.432 117.839 175.28 118.831 175.28C120.463 175.28 121.719 175.688 122.599 176.504C123.495 177.304 123.943 178.528 123.943 180.176V188H122.311ZM117.967 188.12C117.023 188.12 116.199 187.968 115.495 187.664C114.807 187.344 114.279 186.912 113.911 186.368C113.543 185.808 113.359 185.168 113.359 184.448C113.359 183.792 113.511 183.2 113.815 182.672C114.135 182.128 114.647 181.696 115.351 181.376C116.071 181.04 117.031 180.872 118.231 180.872H122.575V182.144H118.279C117.063 182.144 116.215 182.36 115.735 182.792C115.271 183.224 115.039 183.76 115.039 184.4C115.039 185.12 115.319 185.696 115.879 186.128C116.439 186.56 117.223 186.776 118.231 186.776C119.191 186.776 120.015 186.56 120.703 186.128C121.407 185.68 121.919 185.04 122.239 184.208L122.623 185.384C122.303 186.216 121.743 186.88 120.943 187.376C120.159 187.872 119.167 188.12 117.967 188.12ZM128.571 188V170.192H130.275V188H128.571ZM141.658 188V171.2H143.122L150.802 184.304H150.034L157.642 171.2H159.106V188H157.402V173.864H157.81L150.802 185.864H149.962L142.906 173.864H143.362V188H141.658ZM169.572 188.12C168.26 188.12 167.108 187.848 166.116 187.304C165.124 186.744 164.348 185.984 163.788 185.024C163.228 184.048 162.948 182.936 162.948 181.688C162.948 180.44 163.212 179.336 163.74 178.376C164.284 177.416 165.02 176.664 165.948 176.12C166.892 175.56 167.948 175.28 169.116 175.28C170.3 175.28 171.348 175.552 172.26 176.096C173.188 176.624 173.916 177.376 174.444 178.352C174.972 179.312 175.236 180.424 175.236 181.688C175.236 181.768 175.228 181.856 175.212 181.952C175.212 182.032 175.212 182.12 175.212 182.216H164.244V180.944H174.3L173.628 181.448C173.628 180.536 173.428 179.728 173.028 179.024C172.644 178.304 172.116 177.744 171.444 177.344C170.772 176.944 169.996 176.744 169.116 176.744C168.252 176.744 167.476 176.944 166.788 177.344C166.1 177.744 165.564 178.304 165.18 179.024C164.796 179.744 164.604 180.568 164.604 181.496V181.76C164.604 182.72 164.812 183.568 165.228 184.304C165.66 185.024 166.252 185.592 167.004 186.008C167.772 186.408 168.644 186.608 169.62 186.608C170.388 186.608 171.1 186.472 171.756 186.2C172.428 185.928 173.004 185.512 173.484 184.952L174.444 186.056C173.884 186.728 173.18 187.24 172.332 187.592C171.5 187.944 170.58 188.12 169.572 188.12ZM185.136 175.28C186.16 175.28 187.056 175.48 187.824 175.88C188.608 176.264 189.216 176.856 189.648 177.656C190.096 178.456 190.32 179.464 190.32 180.68V188H188.616V180.848C188.616 179.52 188.28 178.52 187.608 177.848C186.952 177.16 186.024 176.816 184.824 176.816C183.928 176.816 183.144 177 182.472 177.368C181.816 177.72 181.304 178.24 180.936 178.928C180.584 179.6 180.408 180.416 180.408 181.376V188H178.704V175.4H180.336V178.856L180.072 178.208C180.472 177.296 181.112 176.584 181.992 176.072C182.872 175.544 183.92 175.28 185.136 175.28ZM200.131 188.12C199.059 188.12 198.123 187.92 197.323 187.52C196.523 187.12 195.899 186.52 195.451 185.72C195.019 184.92 194.803 183.92 194.803 182.72V175.4H196.507V182.528C196.507 183.872 196.835 184.888 197.491 185.576C198.163 186.248 199.099 186.584 200.299 186.584C201.179 186.584 201.939 186.408 202.579 186.056C203.235 185.688 203.731 185.16 204.067 184.472C204.419 183.784 204.595 182.96 204.595 182V175.4H206.299V188H204.667V184.544L204.931 185.168C204.531 186.096 203.907 186.824 203.059 187.352C202.227 187.864 201.251 188.12 200.131 188.12Z" fill="white"/>
<circle cx="369.5" cy="182.5" r="2.5" fill="#D9D9D9"/>
<circle cx="379.5" cy="182.5" r="2.5" fill="#D9D9D9"/>
<circle cx="388.5" cy="182.5" r="2.5" fill="#D9D9D9"/>
<rect x="180" y="225" width="237" height="32" fill="#606060"/>
<rect x="180" y="257" width="237" height="32" fill="#414141"/>
<rect x="180" y="289" width="237" height="32" fill="#414141"/>
<path d="M379 210L387.66 225H370.34L379 210Z" fill="#414141"/>
<path d="M195.526 247.108C194.59 247.108 193.69 246.958 192.826 246.658C191.974 246.346 191.314 245.95 190.846 245.47L191.368 244.444C191.812 244.876 192.406 245.242 193.15 245.542C193.906 245.83 194.698 245.974 195.526 245.974C196.318 245.974 196.96 245.878 197.452 245.686C197.956 245.482 198.322 245.212 198.55 244.876C198.79 244.54 198.91 244.168 198.91 243.76C198.91 243.268 198.766 242.872 198.478 242.572C198.202 242.272 197.836 242.038 197.38 241.87C196.924 241.69 196.42 241.534 195.868 241.402C195.316 241.27 194.764 241.132 194.212 240.988C193.66 240.832 193.15 240.628 192.682 240.376C192.226 240.124 191.854 239.794 191.566 239.386C191.29 238.966 191.152 238.42 191.152 237.748C191.152 237.124 191.314 236.554 191.638 236.038C191.974 235.51 192.484 235.09 193.168 234.778C193.852 234.454 194.728 234.292 195.796 234.292C196.504 234.292 197.206 234.394 197.902 234.598C198.598 234.79 199.198 235.06 199.702 235.408L199.252 236.47C198.712 236.11 198.136 235.846 197.524 235.678C196.924 235.51 196.342 235.426 195.778 235.426C195.022 235.426 194.398 235.528 193.906 235.732C193.414 235.936 193.048 236.212 192.808 236.56C192.58 236.896 192.466 237.28 192.466 237.712C192.466 238.204 192.604 238.6 192.88 238.9C193.168 239.2 193.54 239.434 193.996 239.602C194.464 239.77 194.974 239.92 195.526 240.052C196.078 240.184 196.624 240.328 197.164 240.484C197.716 240.64 198.22 240.844 198.676 241.096C199.144 241.336 199.516 241.66 199.792 242.068C200.08 242.476 200.224 243.01 200.224 243.67C200.224 244.282 200.056 244.852 199.72 245.38C199.384 245.896 198.868 246.316 198.172 246.64C197.488 246.952 196.606 247.108 195.526 247.108ZM206.87 247.09C205.886 247.09 205.022 246.886 204.278 246.478C203.534 246.058 202.952 245.488 202.532 244.768C202.112 244.036 201.902 243.202 201.902 242.266C201.902 241.33 202.1 240.502 202.496 239.782C202.904 239.062 203.456 238.498 204.152 238.09C204.86 237.67 205.652 237.46 206.528 237.46C207.416 237.46 208.202 237.664 208.886 238.072C209.582 238.468 210.128 239.032 210.524 239.764C210.92 240.484 211.118 241.318 211.118 242.266C211.118 242.326 211.112 242.392 211.1 242.464C211.1 242.524 211.1 242.59 211.1 242.662H202.874V241.708H210.416L209.912 242.086C209.912 241.402 209.762 240.796 209.462 240.268C209.174 239.728 208.778 239.308 208.274 239.008C207.77 238.708 207.188 238.558 206.528 238.558C205.88 238.558 205.298 238.708 204.782 239.008C204.266 239.308 203.864 239.728 203.576 240.268C203.288 240.808 203.144 241.426 203.144 242.122V242.32C203.144 243.04 203.3 243.676 203.612 244.228C203.936 244.768 204.38 245.194 204.944 245.506C205.52 245.806 206.174 245.956 206.906 245.956C207.482 245.956 208.016 245.854 208.508 245.65C209.012 245.446 209.444 245.134 209.804 244.714L210.524 245.542C210.104 246.046 209.576 246.43 208.94 246.694C208.316 246.958 207.626 247.09 206.87 247.09ZM216.708 247.09C215.82 247.09 215.136 246.85 214.656 246.37C214.176 245.89 213.936 245.212 213.936 244.336V235.462H215.214V244.264C215.214 244.816 215.352 245.242 215.628 245.542C215.916 245.842 216.324 245.992 216.852 245.992C217.416 245.992 217.884 245.83 218.256 245.506L218.706 246.424C218.454 246.652 218.148 246.82 217.788 246.928C217.44 247.036 217.08 247.09 216.708 247.09ZM212.244 238.612V237.55H218.094V238.612H212.244ZM231.665 247V244.912L231.611 244.57V241.078C231.611 240.274 231.383 239.656 230.927 239.224C230.483 238.792 229.817 238.576 228.929 238.576C228.317 238.576 227.735 238.678 227.183 238.882C226.631 239.086 226.163 239.356 225.779 239.692L225.203 238.738C225.683 238.33 226.259 238.018 226.931 237.802C227.603 237.574 228.311 237.46 229.055 237.46C230.279 237.46 231.221 237.766 231.881 238.378C232.553 238.978 232.889 239.896 232.889 241.132V247H231.665ZM228.407 247.09C227.699 247.09 227.081 246.976 226.553 246.748C226.037 246.508 225.641 246.184 225.365 245.776C225.089 245.356 224.951 244.876 224.951 244.336C224.951 243.844 225.065 243.4 225.293 243.004C225.533 242.596 225.917 242.272 226.445 242.032C226.985 241.78 227.705 241.654 228.605 241.654H231.863V242.608H228.641C227.729 242.608 227.093 242.77 226.733 243.094C226.385 243.418 226.211 243.82 226.211 244.3C226.211 244.84 226.421 245.272 226.841 245.596C227.261 245.92 227.849 246.082 228.605 246.082C229.325 246.082 229.943 245.92 230.459 245.596C230.987 245.26 231.371 244.78 231.611 244.156L231.899 245.038C231.659 245.662 231.239 246.16 230.639 246.532C230.051 246.904 229.307 247.09 228.407 247.09ZM238.898 247.09C238.118 247.09 237.38 246.982 236.684 246.766C235.988 246.538 235.442 246.256 235.046 245.92L235.622 244.912C236.006 245.2 236.498 245.452 237.098 245.668C237.698 245.872 238.328 245.974 238.988 245.974C239.888 245.974 240.536 245.836 240.932 245.56C241.328 245.272 241.526 244.894 241.526 244.426C241.526 244.078 241.412 243.808 241.184 243.616C240.968 243.412 240.68 243.262 240.32 243.166C239.96 243.058 239.558 242.968 239.114 242.896C238.67 242.824 238.226 242.74 237.782 242.644C237.35 242.548 236.954 242.41 236.594 242.23C236.234 242.038 235.94 241.78 235.712 241.456C235.496 241.132 235.388 240.7 235.388 240.16C235.388 239.644 235.532 239.182 235.82 238.774C236.108 238.366 236.528 238.048 237.08 237.82C237.644 237.58 238.328 237.46 239.132 237.46C239.744 237.46 240.356 237.544 240.968 237.712C241.58 237.868 242.084 238.078 242.48 238.342L241.922 239.368C241.502 239.08 241.052 238.876 240.572 238.756C240.092 238.624 239.612 238.558 239.132 238.558C238.28 238.558 237.65 238.708 237.242 239.008C236.846 239.296 236.648 239.668 236.648 240.124C236.648 240.484 236.756 240.766 236.972 240.97C237.2 241.174 237.494 241.336 237.854 241.456C238.226 241.564 238.628 241.654 239.06 241.726C239.504 241.798 239.942 241.888 240.374 241.996C240.818 242.092 241.22 242.23 241.58 242.41C241.952 242.578 242.246 242.824 242.462 243.148C242.69 243.46 242.804 243.874 242.804 244.39C242.804 244.942 242.648 245.422 242.336 245.83C242.036 246.226 241.592 246.538 241.004 246.766C240.428 246.982 239.726 247.09 238.898 247.09ZM255.782 247V244.912L255.728 244.57V241.078C255.728 240.274 255.5 239.656 255.044 239.224C254.6 238.792 253.934 238.576 253.046 238.576C252.434 238.576 251.852 238.678 251.3 238.882C250.748 239.086 250.28 239.356 249.896 239.692L249.32 238.738C249.8 238.33 250.376 238.018 251.048 237.802C251.72 237.574 252.428 237.46 253.172 237.46C254.396 237.46 255.338 237.766 255.998 238.378C256.67 238.978 257.006 239.896 257.006 241.132V247H255.782ZM252.524 247.09C251.816 247.09 251.198 246.976 250.67 246.748C250.154 246.508 249.758 246.184 249.482 245.776C249.206 245.356 249.068 244.876 249.068 244.336C249.068 243.844 249.182 243.4 249.41 243.004C249.65 242.596 250.034 242.272 250.562 242.032C251.102 241.78 251.822 241.654 252.722 241.654H255.98V242.608H252.758C251.846 242.608 251.21 242.77 250.85 243.094C250.502 243.418 250.328 243.82 250.328 244.3C250.328 244.84 250.538 245.272 250.958 245.596C251.378 245.92 251.966 246.082 252.722 246.082C253.442 246.082 254.06 245.92 254.576 245.596C255.104 245.26 255.488 244.78 255.728 244.156L256.016 245.038C255.776 245.662 255.356 246.16 254.756 246.532C254.168 246.904 253.424 247.09 252.524 247.09ZM264.401 247.09C263.465 247.09 262.625 246.886 261.881 246.478C261.149 246.058 260.573 245.488 260.153 244.768C259.733 244.036 259.523 243.202 259.523 242.266C259.523 241.318 259.733 240.484 260.153 239.764C260.573 239.044 261.149 238.48 261.881 238.072C262.625 237.664 263.465 237.46 264.401 237.46C265.205 237.46 265.931 237.616 266.579 237.928C267.227 238.24 267.737 238.708 268.109 239.332L267.155 239.98C266.831 239.5 266.429 239.146 265.949 238.918C265.469 238.69 264.947 238.576 264.383 238.576C263.711 238.576 263.105 238.732 262.565 239.044C262.025 239.344 261.599 239.77 261.287 240.322C260.975 240.874 260.819 241.522 260.819 242.266C260.819 243.01 260.975 243.658 261.287 244.21C261.599 244.762 262.025 245.194 262.565 245.506C263.105 245.806 263.711 245.956 264.383 245.956C264.947 245.956 265.469 245.842 265.949 245.614C266.429 245.386 266.831 245.038 267.155 244.57L268.109 245.218C267.737 245.83 267.227 246.298 266.579 246.622C265.931 246.934 265.205 247.09 264.401 247.09ZM273.713 247.09C272.825 247.09 272.141 246.85 271.661 246.37C271.181 245.89 270.941 245.212 270.941 244.336V235.462H272.219V244.264C272.219 244.816 272.357 245.242 272.633 245.542C272.921 245.842 273.329 245.992 273.857 245.992C274.421 245.992 274.889 245.83 275.261 245.506L275.711 246.424C275.459 246.652 275.153 246.82 274.793 246.928C274.445 247.036 274.085 247.09 273.713 247.09ZM269.249 238.612V237.55H275.099V238.612H269.249ZM278.038 247V237.55H279.316V247H278.038ZM278.686 235.462C278.422 235.462 278.2 235.372 278.02 235.192C277.84 235.012 277.75 234.796 277.75 234.544C277.75 234.292 277.84 234.082 278.02 233.914C278.2 233.734 278.422 233.644 278.686 233.644C278.95 233.644 279.172 233.728 279.352 233.896C279.532 234.064 279.622 234.274 279.622 234.526C279.622 234.79 279.532 235.012 279.352 235.192C279.184 235.372 278.962 235.462 278.686 235.462ZM285.302 247L281.108 237.55H282.44L286.292 246.316H285.662L289.568 237.55H290.828L286.616 247H285.302ZM296.378 247.09C295.394 247.09 294.53 246.886 293.786 246.478C293.042 246.058 292.46 245.488 292.04 244.768C291.62 244.036 291.41 243.202 291.41 242.266C291.41 241.33 291.608 240.502 292.004 239.782C292.412 239.062 292.964 238.498 293.66 238.09C294.368 237.67 295.16 237.46 296.036 237.46C296.924 237.46 297.71 237.664 298.394 238.072C299.09 238.468 299.636 239.032 300.032 239.764C300.428 240.484 300.626 241.318 300.626 242.266C300.626 242.326 300.62 242.392 300.608 242.464C300.608 242.524 300.608 242.59 300.608 242.662H292.382V241.708H299.924L299.42 242.086C299.42 241.402 299.27 240.796 298.97 240.268C298.682 239.728 298.286 239.308 297.782 239.008C297.278 238.708 296.696 238.558 296.036 238.558C295.388 238.558 294.806 238.708 294.29 239.008C293.774 239.308 293.372 239.728 293.084 240.268C292.796 240.808 292.652 241.426 292.652 242.122V242.32C292.652 243.04 292.808 243.676 293.12 244.228C293.444 244.768 293.888 245.194 294.452 245.506C295.028 245.806 295.682 245.956 296.414 245.956C296.99 245.956 297.524 245.854 298.016 245.65C298.52 245.446 298.952 245.134 299.312 244.714L300.032 245.542C299.612 246.046 299.084 246.43 298.448 246.694C297.824 246.958 297.134 247.09 296.378 247.09Z" fill="white"/>
<path d="M193.24 272.034H199.9V273.168H193.24V272.034ZM193.384 277.848H200.962V279H192.052V266.4H200.692V267.552H193.384V277.848ZM207.444 279.09C206.544 279.09 205.734 278.886 205.014 278.478C204.306 278.07 203.748 277.506 203.34 276.786C202.932 276.054 202.728 275.214 202.728 274.266C202.728 273.306 202.932 272.466 203.34 271.746C203.748 271.026 204.306 270.468 205.014 270.072C205.734 269.664 206.544 269.46 207.444 269.46C208.272 269.46 209.01 269.646 209.658 270.018C210.318 270.39 210.84 270.936 211.224 271.656C211.62 272.364 211.818 273.234 211.818 274.266C211.818 275.286 211.626 276.156 211.242 276.876C210.858 277.596 210.336 278.148 209.676 278.532C209.028 278.904 208.284 279.09 207.444 279.09ZM207.534 277.956C208.206 277.956 208.806 277.806 209.334 277.506C209.874 277.194 210.294 276.762 210.594 276.21C210.906 275.646 211.062 274.998 211.062 274.266C211.062 273.522 210.906 272.874 210.594 272.322C210.294 271.77 209.874 271.344 209.334 271.044C208.806 270.732 208.206 270.576 207.534 270.576C206.874 270.576 206.28 270.732 205.752 271.044C205.224 271.344 204.804 271.77 204.492 272.322C204.18 272.874 204.024 273.522 204.024 274.266C204.024 274.998 204.18 275.646 204.492 276.21C204.804 276.762 205.224 277.194 205.752 277.506C206.28 277.806 206.874 277.956 207.534 277.956ZM211.098 279V276.156L211.224 274.248L211.044 272.34V265.644H212.322V279H211.098ZM215.882 279V269.55H217.16V279H215.882ZM216.53 267.462C216.266 267.462 216.044 267.372 215.864 267.192C215.684 267.012 215.594 266.796 215.594 266.544C215.594 266.292 215.684 266.082 215.864 265.914C216.044 265.734 216.266 265.644 216.53 265.644C216.794 265.644 217.016 265.728 217.196 265.896C217.376 266.064 217.466 266.274 217.466 266.526C217.466 266.79 217.376 267.012 217.196 267.192C217.028 267.372 216.806 267.462 216.53 267.462ZM223.704 279.09C222.816 279.09 222.132 278.85 221.652 278.37C221.172 277.89 220.932 277.212 220.932 276.336V267.462H222.21V276.264C222.21 276.816 222.348 277.242 222.624 277.542C222.912 277.842 223.32 277.992 223.848 277.992C224.412 277.992 224.88 277.83 225.252 277.506L225.702 278.424C225.45 278.652 225.144 278.82 224.784 278.928C224.436 279.036 224.076 279.09 223.704 279.09ZM219.24 270.612V269.55H225.09V270.612H219.24Z" fill="white"/>
<path d="M192.052 311V298.4H197.182C198.526 298.4 199.702 298.67 200.71 299.21C201.73 299.738 202.522 300.476 203.086 301.424C203.65 302.372 203.932 303.464 203.932 304.7C203.932 305.936 203.65 307.028 203.086 307.976C202.522 308.924 201.73 309.668 200.71 310.208C199.702 310.736 198.526 311 197.182 311H192.052ZM193.384 309.848H197.11C198.226 309.848 199.192 309.632 200.008 309.2C200.836 308.756 201.478 308.15 201.934 307.382C202.39 306.602 202.618 305.708 202.618 304.7C202.618 303.68 202.39 302.786 201.934 302.018C201.478 301.25 200.836 300.65 200.008 300.218C199.192 299.774 198.226 299.552 197.11 299.552H193.384V309.848ZM210.667 311.09C209.683 311.09 208.819 310.886 208.075 310.478C207.331 310.058 206.749 309.488 206.329 308.768C205.909 308.036 205.699 307.202 205.699 306.266C205.699 305.33 205.897 304.502 206.293 303.782C206.701 303.062 207.253 302.498 207.949 302.09C208.657 301.67 209.449 301.46 210.325 301.46C211.213 301.46 211.999 301.664 212.683 302.072C213.379 302.468 213.925 303.032 214.321 303.764C214.717 304.484 214.915 305.318 214.915 306.266C214.915 306.326 214.909 306.392 214.897 306.464C214.897 306.524 214.897 306.59 214.897 306.662H206.671V305.708H214.213L213.709 306.086C213.709 305.402 213.559 304.796 213.259 304.268C212.971 303.728 212.575 303.308 212.071 303.008C211.567 302.708 210.985 302.558 210.325 302.558C209.677 302.558 209.095 302.708 208.579 303.008C208.063 303.308 207.661 303.728 207.373 304.268C207.085 304.808 206.941 305.426 206.941 306.122V306.32C206.941 307.04 207.097 307.676 207.409 308.228C207.733 308.768 208.177 309.194 208.741 309.506C209.317 309.806 209.971 309.956 210.703 309.956C211.279 309.956 211.813 309.854 212.305 309.65C212.809 309.446 213.241 309.134 213.601 308.714L214.321 309.542C213.901 310.046 213.373 310.43 212.737 310.694C212.113 310.958 211.423 311.09 210.667 311.09ZM217.516 311V297.644H218.794V311H217.516ZM226.364 311.09C225.38 311.09 224.516 310.886 223.772 310.478C223.028 310.058 222.446 309.488 222.026 308.768C221.606 308.036 221.396 307.202 221.396 306.266C221.396 305.33 221.594 304.502 221.99 303.782C222.398 303.062 222.95 302.498 223.646 302.09C224.354 301.67 225.146 301.46 226.022 301.46C226.91 301.46 227.696 301.664 228.38 302.072C229.076 302.468 229.622 303.032 230.018 303.764C230.414 304.484 230.612 305.318 230.612 306.266C230.612 306.326 230.606 306.392 230.594 306.464C230.594 306.524 230.594 306.59 230.594 306.662H222.368V305.708H229.91L229.406 306.086C229.406 305.402 229.256 304.796 228.956 304.268C228.668 303.728 228.272 303.308 227.768 303.008C227.264 302.708 226.682 302.558 226.022 302.558C225.374 302.558 224.792 302.708 224.276 303.008C223.76 303.308 223.358 303.728 223.07 304.268C222.782 304.808 222.638 305.426 222.638 306.122V306.32C222.638 307.04 222.794 307.676 223.106 308.228C223.43 308.768 223.874 309.194 224.438 309.506C225.014 309.806 225.668 309.956 226.4 309.956C226.976 309.956 227.51 309.854 228.002 309.65C228.506 309.446 228.938 309.134 229.298 308.714L230.018 309.542C229.598 310.046 229.07 310.43 228.434 310.694C227.81 310.958 227.12 311.09 226.364 311.09ZM236.202 311.09C235.314 311.09 234.63 310.85 234.15 310.37C233.67 309.89 233.43 309.212 233.43 308.336V299.462H234.708V308.264C234.708 308.816 234.846 309.242 235.122 309.542C235.41 309.842 235.818 309.992 236.346 309.992C236.91 309.992 237.378 309.83 237.75 309.506L238.2 310.424C237.948 310.652 237.642 310.82 237.282 310.928C236.934 311.036 236.574 311.09 236.202 311.09ZM231.738 302.612V301.55H237.588V302.612H231.738ZM244.206 311.09C243.222 311.09 242.358 310.886 241.614 310.478C240.87 310.058 240.288 309.488 239.868 308.768C239.448 308.036 239.238 307.202 239.238 306.266C239.238 305.33 239.436 304.502 239.832 303.782C240.24 303.062 240.792 302.498 241.488 302.09C242.196 301.67 242.988 301.46 243.864 301.46C244.752 301.46 245.538 301.664 246.222 302.072C246.918 302.468 247.464 303.032 247.86 303.764C248.256 304.484 248.454 305.318 248.454 306.266C248.454 306.326 248.448 306.392 248.436 306.464C248.436 306.524 248.436 306.59 248.436 306.662H240.21V305.708H247.752L247.248 306.086C247.248 305.402 247.098 304.796 246.798 304.268C246.51 303.728 246.114 303.308 245.61 303.008C245.106 302.708 244.524 302.558 243.864 302.558C243.216 302.558 242.634 302.708 242.118 303.008C241.602 303.308 241.2 303.728 240.912 304.268C240.624 304.808 240.48 305.426 240.48 306.122V306.32C240.48 307.04 240.636 307.676 240.948 308.228C241.272 308.768 241.716 309.194 242.28 309.506C242.856 309.806 243.51 309.956 244.242 309.956C244.818 309.956 245.352 309.854 245.844 309.65C246.348 309.446 246.78 309.134 247.14 308.714L247.86 309.542C247.44 310.046 246.912 310.43 246.276 310.694C245.652 310.958 244.962 311.09 244.206 311.09Z" fill="white"/>
<path d="M403 246L408.6 274.319L430.325 255.31L403 246ZM432.881 276.354L419.698 261.287L415.935 264.579L429.119 279.646L432.881 276.354Z" fill="white"/>
</svg>
