<svg width="91" height="70" viewBox="0 0 91 70" fill="none" xmlns="http://www.w3.org/2000/svg">
<path d="M57.608 30.532C58.364 30.532 59.018 30.682 59.57 30.982C60.134 31.27 60.572 31.714 60.884 32.314C61.196 32.902 61.352 33.634 61.352 34.51V40H60.452V34.582C60.452 33.526 60.194 32.722 59.678 32.17C59.162 31.618 58.442 31.342 57.518 31.342C56.81 31.342 56.198 31.492 55.682 31.792C55.166 32.092 54.77 32.512 54.494 33.052C54.218 33.592 54.08 34.24 54.08 34.996V40H53.18V34.582C53.18 33.526 52.922 32.722 52.406 32.17C51.89 31.618 51.17 31.342 50.246 31.342C49.538 31.342 48.926 31.492 48.41 31.792C47.894 32.092 47.498 32.512 47.222 33.052C46.946 33.592 46.808 34.24 46.808 34.996V40H45.908V30.604H46.772V33.196L46.646 32.908C46.922 32.176 47.384 31.6 48.032 31.18C48.68 30.748 49.46 30.532 50.372 30.532C51.308 30.532 52.094 30.772 52.73 31.252C53.378 31.72 53.786 32.422 53.954 33.358L53.648 33.232C53.9 32.428 54.374 31.78 55.07 31.288C55.766 30.784 56.612 30.532 57.608 30.532ZM68.8842 40.072C67.9362 40.072 67.0962 39.868 66.3642 39.46C65.6442 39.052 65.0742 38.488 64.6542 37.768C64.2462 37.048 64.0422 36.226 64.0422 35.302C64.0422 34.366 64.2342 33.544 64.6182 32.836C65.0142 32.116 65.5542 31.552 66.2382 31.144C66.9222 30.736 67.6902 30.532 68.5422 30.532C69.3942 30.532 70.1562 30.73 70.8282 31.126C71.5122 31.522 72.0462 32.08 72.4302 32.8C72.8262 33.508 73.0242 34.33 73.0242 35.266C73.0242 35.302 73.0182 35.344 73.0062 35.392C73.0062 35.428 73.0062 35.47 73.0062 35.518H64.7082V34.816H72.5202L72.1602 35.158C72.1722 34.426 72.0162 33.772 71.6922 33.196C71.3802 32.608 70.9542 32.152 70.4142 31.828C69.8742 31.492 69.2502 31.324 68.5422 31.324C67.8462 31.324 67.2222 31.492 66.6702 31.828C66.1302 32.152 65.7042 32.608 65.3922 33.196C65.0802 33.772 64.9242 34.432 64.9242 35.176V35.338C64.9242 36.106 65.0922 36.79 65.4282 37.39C65.7762 37.978 66.2502 38.44 66.8502 38.776C67.4502 39.1 68.1342 39.262 68.9022 39.262C69.5022 39.262 70.0602 39.154 70.5762 38.938C71.1042 38.722 71.5482 38.392 71.9082 37.948L72.4302 38.542C72.0222 39.046 71.5062 39.43 70.8822 39.694C70.2702 39.946 69.6042 40.072 68.8842 40.072ZM80.3984 30.532C81.1664 30.532 81.8324 30.682 82.3964 30.982C82.9724 31.27 83.4164 31.714 83.7284 32.314C84.0524 32.902 84.2144 33.634 84.2144 34.51V40H83.3144V34.582C83.3144 33.526 83.0444 32.722 82.5044 32.17C81.9764 31.618 81.2324 31.342 80.2724 31.342C79.5404 31.342 78.9044 31.492 78.3644 31.792C77.8244 32.092 77.4104 32.512 77.1224 33.052C76.8464 33.592 76.7084 34.24 76.7084 34.996V40H75.8084V30.604H76.6724V33.214L76.5464 32.926C76.8344 32.182 77.3084 31.6 77.9684 31.18C78.6284 30.748 79.4384 30.532 80.3984 30.532ZM87.9197 40V30.604H88.8197V40H87.9197ZM88.3697 28.318C88.1657 28.318 87.9917 28.246 87.8477 28.102C87.7037 27.958 87.6317 27.79 87.6317 27.598C87.6317 27.394 87.7037 27.22 87.8477 27.076C87.9917 26.932 88.1657 26.86 88.3697 26.86C88.5857 26.86 88.7597 26.932 88.8917 27.076C89.0357 27.208 89.1077 27.376 89.1077 27.58C89.1077 27.784 89.0357 27.958 88.8917 28.102C88.7597 28.246 88.5857 28.318 88.3697 28.318Z" fill="white"/>
<path d="M67.3887 49.1244C64.1032 56.5331 58.3363 62.5797 51.0709 66.2337C43.8054 69.8877 35.4908 70.9232 27.5438 69.1636C19.5968 67.4041 12.509 62.9583 7.48826 56.584C2.46747 50.2096 -0.17571 42.301 0.00907106 34.2057C0.193852 26.1103 3.19517 18.3291 8.50162 12.188C13.8081 6.04676 21.0914 1.92552 29.1105 0.526448C37.1296 -0.872626 45.3884 0.537028 52.4796 4.51522C59.5709 8.49341 65.0559 14.794 68 22.3435L66.6833 22.8514C63.8573 15.6049 58.5925 9.5572 51.7858 5.73866C44.9791 1.92013 37.0518 0.567045 29.3545 1.90997C21.6572 3.25289 14.6662 7.20873 9.57273 13.1035C4.47924 18.9982 1.59838 26.4671 1.42101 34.2375C1.24365 42.008 3.78075 49.5992 8.60004 55.7177C13.4193 61.8363 20.2226 66.1036 27.8507 67.7925C35.4788 69.4815 43.4597 68.4876 50.4336 64.9802C57.4074 61.4728 62.9428 55.669 66.0965 48.5575L67.3887 49.1244Z" fill="white"/>
<g clip-path="url(#clip0_490_226)">
<path d="M58.7443 48.7034C57.8874 48.7034 57.1906 48.0283 57.1906 47.1986V20.4277C57.1906 20.0365 57.5152 19.2966 58.7443 19.2966C60.6942 19.2966 61.3 26.0023 61.3 28.445C61.3 32.2341 60.4347 35.7132 60.2979 36.2391V47.1984C60.2979 48.0283 59.6011 48.7034 58.7443 48.7034ZM58.2251 36.6773V47.1986C58.2251 47.4758 58.4579 47.7014 58.7443 47.7014C59.0306 47.7014 59.2634 47.476 59.2634 47.1986V36.6773H58.2251ZM58.2251 35.6753H59.3731C59.6187 34.6415 60.2655 31.6161 60.2655 28.4452C60.2655 24.2617 59.2504 20.6581 58.7041 20.2992C58.3851 20.3058 58.2452 20.3916 58.2253 20.4537L58.2251 35.6753ZM23.4413 48.7034C23.0544 48.7034 22.682 48.5563 22.4196 48.2998C22.1786 48.0639 22.0474 47.7565 22.0507 47.4345L22.2175 31.045C20.9483 30.5706 20.0294 29.3843 20.0002 27.9983C19.9998 27.9859 20 27.9733 20.0006 27.9606L20.3555 20.4048C20.3685 20.1287 20.616 19.9197 20.8955 19.9271C21.1811 19.9397 21.4018 20.174 21.3888 20.4503L21.0586 27.4823H21.9609L22.1268 20.4163C22.1333 20.1395 22.3768 19.9193 22.6557 19.9267C22.9415 19.9331 23.1676 20.1623 23.161 20.4389L22.9961 27.4825H23.887L23.7217 20.4391C23.7153 20.1625 23.9415 19.9333 24.227 19.9269C24.508 19.9185 24.7494 20.1397 24.7559 20.4165L24.9218 27.4825H25.8241L25.4941 20.4505C25.4811 20.1742 25.7018 19.9399 25.9874 19.9273C26.2702 19.9169 26.5148 20.1287 26.5274 20.405L26.8821 27.9606C26.8827 27.9733 26.8829 27.9859 26.8825 27.9983C26.8533 29.3841 25.9344 30.5706 24.6652 31.045L24.8322 47.4345C24.8355 47.7565 24.7043 48.0639 24.4633 48.2998C24.2007 48.5563 23.8283 48.7034 23.4413 48.7034ZM23.2497 31.2656L23.0853 47.4441C23.0846 47.5116 23.1227 47.5633 23.1548 47.5946C23.2934 47.7303 23.5891 47.7301 23.7281 47.5946C23.7602 47.5631 23.7983 47.5114 23.7976 47.4441L23.6329 31.2656H23.2497ZM21.1035 28.4845C21.3633 29.5021 22.3197 30.2636 23.4413 30.2636C24.5632 30.2636 25.5196 29.5021 25.7792 28.4845H24.4163C24.4163 28.4845 24.4157 28.4845 24.4153 28.4845H22.4674C22.4672 28.4845 22.4672 28.4845 22.467 28.4845C22.467 28.4845 22.4668 28.4845 22.4666 28.4845H21.1035ZM41.2665 46.7167C33.6745 46.7167 27.4978 40.7344 27.4978 33.3814C27.4978 26.0284 33.6745 20.0461 41.2665 20.0461C48.8587 20.0461 55.0354 26.0284 55.0354 33.3814C55.0354 40.7344 48.8589 46.7167 41.2665 46.7167ZM41.2665 21.0479C34.2448 21.0479 28.5324 26.5807 28.5324 33.3812C28.5324 40.1817 34.2448 45.7145 41.2665 45.7145C48.2882 45.7145 54.0008 40.1817 54.0008 33.3812C54.0008 26.5807 48.2882 21.0479 41.2665 21.0479ZM41.2665 43.0889C35.7397 43.0889 31.2435 38.734 31.2435 33.3814C31.2435 28.0288 35.7397 23.6739 41.2665 23.6739C46.7933 23.6739 51.2895 28.0288 51.2895 33.3814C51.2895 38.734 46.7933 43.0889 41.2665 43.0889ZM41.2665 24.6757C36.3102 24.6757 32.2781 28.5811 32.2781 33.3812C32.2781 38.1813 36.3102 42.0867 41.2665 42.0867C46.2228 42.0867 50.2549 38.1813 50.2549 33.3812C50.2549 28.5811 46.2228 24.6757 41.2665 24.6757Z" fill="white"/>
</g>
<g clip-path="url(#clip1_490_226)">
<path d="M32.2459 48.8357C32.9988 48.8357 33.6112 48.1774 33.6112 47.3685L33.6112 21.2668C33.6112 20.8854 33.3259 20.1641 32.2459 20.1641C30.5324 20.1641 30 26.7021 30 29.0837C30 32.7781 30.7604 36.1702 30.8806 36.6829V47.3683C30.8806 48.1774 31.493 48.8357 32.2459 48.8357ZM32.7021 37.1102V47.3685C32.7021 47.6387 32.4975 47.8587 32.2459 47.8587C31.9942 47.8587 31.7897 47.6389 31.7897 47.3685V37.1102H32.7021ZM32.7021 36.1333H31.6933C31.4775 35.1253 30.9091 32.1755 30.9091 29.0839C30.9091 25.005 31.8012 21.4915 32.2812 21.1416C32.5615 21.148 32.6845 21.2317 32.7019 21.2922L32.7021 36.1333ZM63.2686 48.8357C63.6086 48.8357 63.9359 48.6923 64.1664 48.4422C64.3783 48.2122 64.4935 47.9125 64.4906 47.5985L64.3441 31.6187C65.4594 31.1562 66.2669 29.9995 66.2925 28.6482C66.2929 28.6361 66.2927 28.6238 66.2921 28.6115L65.9803 21.2446C65.9689 20.9753 65.7514 20.7715 65.5058 20.7788C65.2548 20.7911 65.0608 21.0195 65.0723 21.2889L65.3625 28.1451H64.5695L64.4237 21.2557C64.4181 20.9859 64.2041 20.7711 63.959 20.7784C63.7079 20.7846 63.5091 21.0081 63.515 21.2778L63.6599 28.1453H62.8769L63.0222 21.278C63.0278 21.0083 62.8291 20.7848 62.5782 20.7786C62.3313 20.7704 62.1191 20.9861 62.1135 21.2559L61.9676 28.1453H61.1747L61.4647 21.2891C61.4762 21.0197 61.2822 20.7913 61.0312 20.7789C60.7827 20.7688 60.5678 20.9753 60.5567 21.2448L60.245 28.6115C60.2445 28.6238 60.2443 28.6361 60.2447 28.6482C60.2703 29.9993 61.0778 31.1562 62.1931 31.6187L62.0464 47.5985C62.0435 47.9125 62.1587 48.2122 62.3706 48.4422C62.6013 48.6923 62.9286 48.8357 63.2686 48.8357ZM63.437 31.8338L63.5815 47.6079C63.582 47.6737 63.5486 47.7241 63.5204 47.7546C63.3986 47.8869 63.1388 47.8867 63.0166 47.7546C62.9884 47.7239 62.9549 47.6735 62.9555 47.6079L63.1002 31.8338H63.437ZM65.323 29.1222C65.0946 30.1144 64.2543 30.8569 63.2686 30.8569C62.2827 30.8569 61.4423 30.1144 61.2142 29.1222H62.4118C62.4118 29.1222 62.4124 29.1222 62.4127 29.1222H64.1244C64.1246 29.1222 64.1246 29.1222 64.1248 29.1222C64.1248 29.1222 64.125 29.1222 64.1252 29.1222H65.323ZM47.6046 46.8986C54.2761 46.8986 59.7039 41.0659 59.7039 33.8967C59.7039 26.7275 54.2761 20.8948 47.6046 20.8948C40.9329 20.8948 35.5051 26.7275 35.5051 33.8967C35.5051 41.0659 40.9327 46.8986 47.6046 46.8986ZM47.6046 21.8716C53.775 21.8716 58.7948 27.266 58.7948 33.8965C58.7948 40.527 53.775 45.9215 47.6046 45.9215C41.4342 45.9215 36.4142 40.527 36.4142 33.8965C36.4142 27.266 41.4342 21.8716 47.6046 21.8716ZM47.6046 43.3615C52.4613 43.3615 56.4124 39.1155 56.4124 33.8967C56.4124 28.6779 52.4613 24.4319 47.6046 24.4319C42.7479 24.4319 38.7968 28.6779 38.7968 33.8967C38.7968 39.1155 42.7479 43.3615 47.6046 43.3615ZM47.6046 25.4087C51.96 25.4087 55.5032 29.2164 55.5032 33.8965C55.5032 38.5766 51.96 42.3844 47.6046 42.3844C43.2492 42.3844 39.706 38.5766 39.706 33.8965C39.706 29.2164 43.2492 25.4087 47.6046 25.4087Z" fill="white"/>
</g>
<defs>
<clipPath id="clip0_490_226">
<rect width="7" height="40" fill="white" transform="translate(20 14)"/>
</clipPath>
<clipPath id="clip1_490_226">
<rect width="4" height="39" fill="white" transform="matrix(-1 0 0 1 34 15)"/>
</clipPath>
</defs>
</svg>
