<svg width="364" height="364" viewBox="0 0 364 364" fill="none" xmlns="http://www.w3.org/2000/svg">
<g clip-path="url(#clip0_736_70)">
<path d="M364 0H0V364H364V0Z" fill="#202023"/>
<path d="M13.4815 13.4815H26.963V26.963H13.4815V13.4815ZM26.963 13.4815H40.4444V26.963H26.963V13.4815ZM40.4444 13.4815H53.9259V26.963H40.4444V13.4815ZM53.9259 13.4815H67.4074V26.963H53.9259V13.4815ZM67.4074 13.4815H80.8889V26.963H67.4074V13.4815ZM80.8889 13.4815H94.3704V26.963H80.8889V13.4815ZM94.3704 13.4815H107.852V26.963H94.3704V13.4815ZM134.815 13.4815H148.296V26.963H134.815V13.4815ZM188.741 13.4815H202.222V26.963H188.741V13.4815ZM229.185 13.4815H242.667V26.963H229.185V13.4815ZM256.148 13.4815H269.63V26.963H256.148V13.4815ZM269.63 13.4815H283.111V26.963H269.63V13.4815ZM283.111 13.4815H296.593V26.963H283.111V13.4815ZM296.593 13.4815H310.074V26.963H296.593V13.4815ZM310.074 13.4815H323.556V26.963H310.074V13.4815ZM323.556 13.4815H337.037V26.963H323.556V13.4815ZM337.037 13.4815H350.519V26.963H337.037V13.4815ZM13.4815 26.963H26.963V40.4445H13.4815V26.963ZM94.3704 26.963H107.852V40.4445H94.3704V26.963ZM121.333 26.963H134.815V40.4445H121.333V26.963ZM134.815 26.963H148.296V40.4445H134.815V26.963ZM161.778 26.963H175.259V40.4445H161.778V26.963ZM175.259 26.963H188.741V40.4445H175.259V26.963ZM215.704 26.963H229.185V40.4445H215.704V26.963ZM256.148 26.963H269.63V40.4445H256.148V26.963ZM337.037 26.963H350.519V40.4445H337.037V26.963ZM13.4815 40.4445H26.963V53.926H13.4815V40.4445ZM40.4444 40.4445H53.9259V53.926H40.4444V40.4445ZM53.9259 40.4445H67.4074V53.926H53.9259V40.4445ZM67.4074 40.4445H80.8889V53.926H67.4074V40.4445ZM94.3704 40.4445H107.852V53.926H94.3704V40.4445ZM134.815 40.4445H148.296V53.926H134.815V40.4445ZM148.296 40.4445H161.778V53.926H148.296V40.4445ZM161.778 40.4445H175.259V53.926H161.778V40.4445ZM202.222 40.4445H215.704V53.926H202.222V40.4445ZM229.185 40.4445H242.667V53.926H229.185V40.4445ZM256.148 40.4445H269.63V53.926H256.148V40.4445ZM283.111 40.4445H296.593V53.926H283.111V40.4445ZM296.593 40.4445H310.074V53.926H296.593V40.4445ZM310.074 40.4445H323.556V53.926H310.074V40.4445ZM337.037 40.4445H350.519V53.926H337.037V40.4445ZM13.4815 53.926H26.963V67.4074H13.4815V53.926ZM40.4444 53.926H53.9259V67.4074H40.4444V53.926ZM53.9259 53.926H67.4074V67.4074H53.9259V53.926ZM67.4074 53.926H80.8889V67.4074H67.4074V53.926ZM94.3704 53.926H107.852V67.4074H94.3704V53.926ZM121.333 53.926H134.815V67.4074H121.333V53.926ZM134.815 53.926H148.296V67.4074H134.815V53.926ZM161.778 53.926H175.259V67.4074H161.778V53.926ZM188.741 53.926H202.222V67.4074H188.741V53.926ZM202.222 53.926H215.704V67.4074H202.222V53.926ZM256.148 53.926H269.63V67.4074H256.148V53.926ZM283.111 53.926H296.593V67.4074H283.111V53.926ZM296.593 53.926H310.074V67.4074H296.593V53.926ZM310.074 53.926H323.556V67.4074H310.074V53.926ZM337.037 53.926H350.519V67.4074H337.037V53.926ZM13.4815 67.4074H26.963V80.8889H13.4815V67.4074ZM40.4444 67.4074H53.9259V80.8889H40.4444V67.4074ZM53.9259 67.4074H67.4074V80.8889H53.9259V67.4074ZM67.4074 67.4074H80.8889V80.8889H67.4074V67.4074ZM94.3704 67.4074H107.852V80.8889H94.3704V67.4074ZM148.296 67.4074H161.778V80.8889H148.296V67.4074ZM175.259 67.4074H188.741V80.8889H175.259V67.4074ZM229.185 67.4074H242.667V80.8889H229.185V67.4074ZM256.148 67.4074H269.63V80.8889H256.148V67.4074ZM283.111 67.4074H296.593V80.8889H283.111V67.4074ZM296.593 67.4074H310.074V80.8889H296.593V67.4074ZM310.074 67.4074H323.556V80.8889H310.074V67.4074ZM337.037 67.4074H350.519V80.8889H337.037V67.4074ZM13.4815 80.8889H26.963V94.3704H13.4815V80.8889ZM94.3704 80.8889H107.852V94.3704H94.3704V80.8889ZM121.333 80.8889H134.815V94.3704H121.333V80.8889ZM148.296 80.8889H161.778V94.3704H148.296V80.8889ZM215.704 80.8889H229.185V94.3704H215.704V80.8889ZM229.185 80.8889H242.667V94.3704H229.185V80.8889ZM256.148 80.8889H269.63V94.3704H256.148V80.8889ZM337.037 80.8889H350.519V94.3704H337.037V80.8889ZM13.4815 94.3704H26.963V107.852H13.4815V94.3704ZM26.963 94.3704H40.4444V107.852H26.963V94.3704ZM40.4444 94.3704H53.9259V107.852H40.4444V94.3704ZM53.9259 94.3704H67.4074V107.852H53.9259V94.3704ZM67.4074 94.3704H80.8889V107.852H67.4074V94.3704ZM80.8889 94.3704H94.3704V107.852H80.8889V94.3704ZM94.3704 94.3704H107.852V107.852H94.3704V94.3704ZM121.333 94.3704H134.815V107.852H121.333V94.3704ZM148.296 94.3704H161.778V107.852H148.296V94.3704ZM175.259 94.3704H188.741V107.852H175.259V94.3704ZM202.222 94.3704H215.704V107.852H202.222V94.3704ZM229.185 94.3704H242.667V107.852H229.185V94.3704ZM256.148 94.3704H269.63V107.852H256.148V94.3704ZM269.63 94.3704H283.111V107.852H269.63V94.3704ZM283.111 94.3704H296.593V107.852H283.111V94.3704ZM296.593 94.3704H310.074V107.852H296.593V94.3704ZM310.074 94.3704H323.556V107.852H310.074V94.3704ZM323.556 94.3704H337.037V107.852H323.556V94.3704ZM337.037 94.3704H350.519V107.852H337.037V94.3704ZM175.259 107.852H188.741V121.333H175.259V107.852ZM202.222 107.852H215.704V121.333H202.222V107.852ZM215.704 107.852H229.185V121.333H215.704V107.852ZM229.185 107.852H242.667V121.333H229.185V107.852ZM13.4815 121.333H26.963V134.815H13.4815V121.333ZM26.963 121.333H40.4444V134.815H26.963V121.333ZM40.4444 121.333H53.9259V134.815H40.4444V121.333ZM53.9259 121.333H67.4074V134.815H53.9259V121.333ZM67.4074 121.333H80.8889V134.815H67.4074V121.333ZM94.3704 121.333H107.852V134.815H94.3704V121.333ZM107.852 121.333H121.333V134.815H107.852V121.333ZM121.333 121.333H134.815V134.815H121.333V121.333ZM134.815 121.333H148.296V134.815H134.815V121.333ZM148.296 121.333H161.778V134.815H148.296V121.333ZM175.259 121.333H188.741V134.815H175.259V121.333ZM188.741 121.333H202.222V134.815H188.741V121.333ZM202.222 121.333H215.704V134.815H202.222V121.333ZM215.704 121.333H229.185V134.815H215.704V121.333ZM242.667 121.333H256.148V134.815H242.667V121.333ZM269.63 121.333H283.111V134.815H269.63V121.333ZM296.593 121.333H310.074V134.815H296.593V121.333ZM323.556 121.333H337.037V134.815H323.556V121.333ZM13.4815 134.815H26.963V148.296H13.4815V134.815ZM40.4444 134.815H53.9259V148.296H40.4444V134.815ZM107.852 134.815H121.333V148.296H107.852V134.815ZM134.815 134.815H148.296V148.296H134.815V134.815ZM202.222 134.815H215.704V148.296H202.222V134.815ZM229.185 134.815H242.667V148.296H229.185V134.815ZM269.63 134.815H283.111V148.296H269.63V134.815ZM323.556 134.815H337.037V148.296H323.556V134.815ZM13.4815 148.296H26.963V161.778H13.4815V148.296ZM26.963 148.296H40.4444V161.778H26.963V148.296ZM94.3704 148.296H107.852V161.778H94.3704V148.296ZM107.852 148.296H121.333V161.778H107.852V148.296ZM121.333 148.296H134.815V161.778H121.333V148.296ZM134.815 148.296H148.296V161.778H134.815V148.296ZM161.778 148.296H175.259V161.778H161.778V148.296ZM175.259 148.296H188.741V161.778H175.259V148.296ZM215.704 148.296H229.185V161.778H215.704V148.296ZM229.185 148.296H242.667V161.778H229.185V148.296ZM242.667 148.296H256.148V161.778H242.667V148.296ZM256.148 148.296H269.63V161.778H256.148V148.296ZM269.63 148.296H283.111V161.778H269.63V148.296ZM296.593 148.296H310.074V161.778H296.593V148.296ZM323.556 148.296H337.037V161.778H323.556V148.296ZM337.037 148.296H350.519V161.778H337.037V148.296ZM13.4815 161.778H26.963V175.259H13.4815V161.778ZM40.4444 161.778H53.9259V175.259H40.4444V161.778ZM53.9259 161.778H67.4074V175.259H53.9259V161.778ZM134.815 161.778H148.296V175.259H134.815V161.778ZM148.296 161.778H161.778V175.259H148.296V161.778ZM161.778 161.778H175.259V175.259H161.778V161.778ZM215.704 161.778H229.185V175.259H215.704V161.778ZM229.185 161.778H242.667V175.259H229.185V161.778ZM256.148 161.778H269.63V175.259H256.148V161.778ZM337.037 161.778H350.519V175.259H337.037V161.778ZM67.4074 175.259H80.8889V188.741H67.4074V175.259ZM80.8889 175.259H94.3704V188.741H80.8889V175.259ZM94.3704 175.259H107.852V188.741H94.3704V175.259ZM121.333 175.259H134.815V188.741H121.333V175.259ZM134.815 175.259H148.296V188.741H134.815V175.259ZM161.778 175.259H175.259V188.741H161.778V175.259ZM188.741 175.259H202.222V188.741H188.741V175.259ZM202.222 175.259H215.704V188.741H202.222V175.259ZM242.667 175.259H256.148V188.741H242.667V175.259ZM256.148 175.259H269.63V188.741H256.148V175.259ZM283.111 175.259H296.593V188.741H283.111V175.259ZM310.074 175.259H323.556V188.741H310.074V175.259ZM323.556 175.259H337.037V188.741H323.556V175.259ZM337.037 175.259H350.519V188.741H337.037V175.259ZM13.4815 188.741H26.963V202.222H13.4815V188.741ZM26.963 188.741H40.4444V202.222H26.963V188.741ZM53.9259 188.741H67.4074V202.222H53.9259V188.741ZM80.8889 188.741H94.3704V202.222H80.8889V188.741ZM107.852 188.741H121.333V202.222H107.852V188.741ZM121.333 188.741H134.815V202.222H121.333V188.741ZM148.296 188.741H161.778V202.222H148.296V188.741ZM175.259 188.741H188.741V202.222H175.259V188.741ZM202.222 188.741H215.704V202.222H202.222V188.741ZM229.185 188.741H242.667V202.222H229.185V188.741ZM269.63 188.741H283.111V202.222H269.63V188.741ZM296.593 188.741H310.074V202.222H296.593V188.741ZM323.556 188.741H337.037V202.222H323.556V188.741ZM13.4815 202.222H26.963V215.704H13.4815V202.222ZM40.4444 202.222H53.9259V215.704H40.4444V202.222ZM94.3704 202.222H107.852V215.704H94.3704V202.222ZM148.296 202.222H161.778V215.704H148.296V202.222ZM215.704 202.222H229.185V215.704H215.704V202.222ZM242.667 202.222H256.148V215.704H242.667V202.222ZM269.63 202.222H283.111V215.704H269.63V202.222ZM283.111 202.222H296.593V215.704H283.111V202.222ZM296.593 202.222H310.074V215.704H296.593V202.222ZM323.556 202.222H337.037V215.704H323.556V202.222ZM337.037 202.222H350.519V215.704H337.037V202.222ZM13.4815 215.704H26.963V229.185H13.4815V215.704ZM80.8889 215.704H94.3704V229.185H80.8889V215.704ZM134.815 215.704H148.296V229.185H134.815V215.704ZM148.296 215.704H161.778V229.185H148.296V215.704ZM175.259 215.704H188.741V229.185H175.259V215.704ZM229.185 215.704H242.667V229.185H229.185V215.704ZM242.667 215.704H256.148V229.185H242.667V215.704ZM256.148 215.704H269.63V229.185H256.148V215.704ZM269.63 215.704H283.111V229.185H269.63V215.704ZM283.111 215.704H296.593V229.185H283.111V215.704ZM337.037 215.704H350.519V229.185H337.037V215.704ZM13.4815 229.185H26.963V242.667H13.4815V229.185ZM53.9259 229.185H67.4074V242.667H53.9259V229.185ZM67.4074 229.185H80.8889V242.667H67.4074V229.185ZM94.3704 229.185H107.852V242.667H94.3704V229.185ZM107.852 229.185H121.333V242.667H107.852V229.185ZM175.259 229.185H188.741V242.667H175.259V229.185ZM188.741 229.185H202.222V242.667H188.741V229.185ZM229.185 229.185H242.667V242.667H229.185V229.185ZM242.667 229.185H256.148V242.667H242.667V229.185ZM256.148 229.185H269.63V242.667H256.148V229.185ZM269.63 229.185H283.111V242.667H269.63V229.185ZM283.111 229.185H296.593V242.667H283.111V229.185ZM310.074 229.185H323.556V242.667H310.074V229.185ZM121.333 242.667H134.815V256.148H121.333V242.667ZM134.815 242.667H148.296V256.148H134.815V242.667ZM148.296 242.667H161.778V256.148H148.296V242.667ZM188.741 242.667H202.222V256.148H188.741V242.667ZM215.704 242.667H229.185V256.148H215.704V242.667ZM229.185 242.667H242.667V256.148H229.185V242.667ZM283.111 242.667H296.593V256.148H283.111V242.667ZM296.593 242.667H310.074V256.148H296.593V242.667ZM13.4815 256.148H26.963V269.63H13.4815V256.148ZM26.963 256.148H40.4444V269.63H26.963V256.148ZM40.4444 256.148H53.9259V269.63H40.4444V256.148ZM53.9259 256.148H67.4074V269.63H53.9259V256.148ZM67.4074 256.148H80.8889V269.63H67.4074V256.148ZM80.8889 256.148H94.3704V269.63H80.8889V256.148ZM94.3704 256.148H107.852V269.63H94.3704V256.148ZM121.333 256.148H134.815V269.63H121.333V256.148ZM134.815 256.148H148.296V269.63H134.815V256.148ZM161.778 256.148H175.259V269.63H161.778V256.148ZM175.259 256.148H188.741V269.63H175.259V256.148ZM188.741 256.148H202.222V269.63H188.741V256.148ZM202.222 256.148H215.704V269.63H202.222V256.148ZM229.185 256.148H242.667V269.63H229.185V256.148ZM256.148 256.148H269.63V269.63H256.148V256.148ZM283.111 256.148H296.593V269.63H283.111V256.148ZM310.074 256.148H323.556V269.63H310.074V256.148ZM323.556 256.148H337.037V269.63H323.556V256.148ZM337.037 256.148H350.519V269.63H337.037V256.148ZM13.4815 269.63H26.963V283.111H13.4815V269.63ZM94.3704 269.63H107.852V283.111H94.3704V269.63ZM161.778 269.63H175.259V283.111H161.778V269.63ZM215.704 269.63H229.185V283.111H215.704V269.63ZM229.185 269.63H242.667V283.111H229.185V269.63ZM283.111 269.63H296.593V283.111H283.111V269.63ZM296.593 269.63H310.074V283.111H296.593V269.63ZM337.037 269.63H350.519V283.111H337.037V269.63ZM13.4815 283.111H26.963V296.593H13.4815V283.111ZM40.4444 283.111H53.9259V296.593H40.4444V283.111ZM53.9259 283.111H67.4074V296.593H53.9259V283.111ZM67.4074 283.111H80.8889V296.593H67.4074V283.111ZM94.3704 283.111H107.852V296.593H94.3704V283.111ZM121.333 283.111H134.815V296.593H121.333V283.111ZM148.296 283.111H161.778V296.593H148.296V283.111ZM161.778 283.111H175.259V296.593H161.778V283.111ZM175.259 283.111H188.741V296.593H175.259V283.111ZM188.741 283.111H202.222V296.593H188.741V283.111ZM202.222 283.111H215.704V296.593H202.222V283.111ZM215.704 283.111H229.185V296.593H215.704V283.111ZM229.185 283.111H242.667V296.593H229.185V283.111ZM242.667 283.111H256.148V296.593H242.667V283.111ZM256.148 283.111H269.63V296.593H256.148V283.111ZM269.63 283.111H283.111V296.593H269.63V283.111ZM283.111 283.111H296.593V296.593H283.111V283.111ZM310.074 283.111H323.556V296.593H310.074V283.111ZM13.4815 296.593H26.963V310.074H13.4815V296.593ZM40.4444 296.593H53.9259V310.074H40.4444V296.593ZM53.9259 296.593H67.4074V310.074H53.9259V296.593ZM67.4074 296.593H80.8889V310.074H67.4074V296.593ZM94.3704 296.593H107.852V310.074H94.3704V296.593ZM121.333 296.593H134.815V310.074H121.333V296.593ZM148.296 296.593H161.778V310.074H148.296V296.593ZM175.259 296.593H188.741V310.074H175.259V296.593ZM215.704 296.593H229.185V310.074H215.704V296.593ZM229.185 296.593H242.667V310.074H229.185V296.593ZM242.667 296.593H256.148V310.074H242.667V296.593ZM256.148 296.593H269.63V310.074H256.148V296.593ZM283.111 296.593H296.593V310.074H283.111V296.593ZM296.593 296.593H310.074V310.074H296.593V296.593ZM310.074 296.593H323.556V310.074H310.074V296.593ZM323.556 296.593H337.037V310.074H323.556V296.593ZM337.037 296.593H350.519V310.074H337.037V296.593ZM13.4815 310.074H26.963V323.556H13.4815V310.074ZM40.4444 310.074H53.9259V323.556H40.4444V310.074ZM53.9259 310.074H67.4074V323.556H53.9259V310.074ZM67.4074 310.074H80.8889V323.556H67.4074V310.074ZM94.3704 310.074H107.852V323.556H94.3704V310.074ZM121.333 310.074H134.815V323.556H121.333V310.074ZM188.741 310.074H202.222V323.556H188.741V310.074ZM229.185 310.074H242.667V323.556H229.185V310.074ZM296.593 310.074H310.074V323.556H296.593V310.074ZM310.074 310.074H323.556V323.556H310.074V310.074ZM337.037 310.074H350.519V323.556H337.037V310.074ZM13.4815 323.556H26.963V337.037H13.4815V323.556ZM94.3704 323.556H107.852V337.037H94.3704V323.556ZM121.333 323.556H134.815V337.037H121.333V323.556ZM148.296 323.556H161.778V337.037H148.296V323.556ZM175.259 323.556H188.741V337.037H175.259V323.556ZM202.222 323.556H215.704V337.037H202.222V323.556ZM215.704 323.556H229.185V337.037H215.704V323.556ZM229.185 323.556H242.667V337.037H229.185V323.556ZM269.63 323.556H283.111V337.037H269.63V323.556ZM283.111 323.556H296.593V337.037H283.111V323.556ZM296.593 323.556H310.074V337.037H296.593V323.556ZM337.037 323.556H350.519V337.037H337.037V323.556ZM13.4815 337.037H26.963V350.519H13.4815V337.037ZM26.963 337.037H40.4444V350.519H26.963V337.037ZM40.4444 337.037H53.9259V350.519H40.4444V337.037ZM53.9259 337.037H67.4074V350.519H53.9259V337.037ZM67.4074 337.037H80.8889V350.519H67.4074V337.037ZM80.8889 337.037H94.3704V350.519H80.8889V337.037ZM94.3704 337.037H107.852V350.519H94.3704V337.037ZM121.333 337.037H134.815V350.519H121.333V337.037ZM134.815 337.037H148.296V350.519H134.815V337.037ZM148.296 337.037H161.778V350.519H148.296V337.037ZM175.259 337.037H188.741V350.519H175.259V337.037ZM188.741 337.037H202.222V350.519H188.741V337.037ZM202.222 337.037H215.704V350.519H202.222V337.037ZM242.667 337.037H256.148V350.519H242.667V337.037ZM256.148 337.037H269.63V350.519H256.148V337.037ZM269.63 337.037H283.111V350.519H269.63V337.037ZM283.111 337.037H296.593V350.519H283.111V337.037ZM296.593 337.037H310.074V350.519H296.593V337.037ZM310.074 337.037H323.556V350.519H310.074V337.037ZM323.556 337.037H337.037V350.519H323.556V337.037ZM337.037 337.037H350.519V350.519H337.037V337.037Z" fill="#F7F7F7"/>
</g>
<defs>
<clipPath id="clip0_736_70">
<rect width="364" height="364" fill="white"/>
</clipPath>
</defs>
</svg>
