<svg width="388" height="288" viewBox="0 0 388 288" fill="none" xmlns="http://www.w3.org/2000/svg">
<path d="M382.019 167.169V119.868H386.55V167.169H382.019ZM384.285 108.36C383.258 108.36 382.382 107.998 381.657 107.273C380.932 106.548 380.57 105.702 380.57 104.735C380.57 103.708 380.932 102.833 381.657 102.108C382.382 101.383 383.258 101.02 384.285 101.02C385.372 101.02 386.248 101.383 386.913 102.108C387.638 102.772 388 103.618 388 104.645C388 105.672 387.638 106.548 386.913 107.273C386.248 107.998 385.372 108.36 384.285 108.36Z" fill="white"/>
<path d="M344.156 119.506C348.022 119.506 351.375 120.261 354.214 121.771C357.114 123.221 359.349 125.456 360.919 128.477C362.551 131.437 363.366 135.122 363.366 139.532V167.169H358.835V139.894C358.835 134.578 357.476 130.531 354.758 127.752C352.1 124.973 348.354 123.583 343.521 123.583C339.836 123.583 336.635 124.338 333.916 125.849C331.198 127.359 329.114 129.473 327.664 132.192C326.274 134.91 325.58 138.172 325.58 141.978V167.169H321.049V119.868H325.398V133.007L324.764 131.557C326.214 127.812 328.6 124.882 331.923 122.768C335.245 120.593 339.323 119.506 344.156 119.506Z" fill="white"/>
<path d="M286.191 167.532C281.419 167.532 277.19 166.505 273.505 164.451C269.88 162.397 267.011 159.558 264.897 155.933C262.843 152.308 261.816 148.17 261.816 143.519C261.816 138.807 262.782 134.669 264.715 131.104C266.709 127.48 269.427 124.641 272.871 122.587C276.314 120.533 280.18 119.506 284.469 119.506C288.759 119.506 292.595 120.502 295.978 122.496C299.421 124.49 302.109 127.299 304.042 130.923C306.036 134.487 307.033 138.625 307.033 143.337C307.033 143.519 307.002 143.73 306.942 143.972C306.942 144.153 306.942 144.364 306.942 144.606H265.168V141.072H304.495L302.683 142.794C302.743 139.109 301.958 135.816 300.327 132.917C298.756 129.957 296.612 127.661 293.893 126.03C291.175 124.338 288.034 123.493 284.469 123.493C280.966 123.493 277.824 124.338 275.045 126.03C272.327 127.661 270.182 129.957 268.612 132.917C267.041 135.816 266.256 139.139 266.256 142.884V143.7C266.256 147.566 267.102 151.01 268.793 154.03C270.545 156.99 272.931 159.316 275.952 161.007C278.972 162.638 282.416 163.454 286.282 163.454C289.302 163.454 292.111 162.91 294.709 161.823C297.367 160.736 299.602 159.074 301.414 156.839L304.042 159.829C301.988 162.367 299.391 164.3 296.249 165.629C293.169 166.897 289.816 167.532 286.191 167.532Z" fill="white"/>
<path d="M229.425 119.506C233.231 119.506 236.523 120.261 239.302 121.771C242.141 123.221 244.346 125.456 245.917 128.477C247.488 131.437 248.273 135.122 248.273 139.532V167.169H243.742V139.894C243.742 134.578 242.443 130.531 239.846 127.752C237.248 124.973 233.623 123.583 228.972 123.583C225.408 123.583 222.327 124.338 219.729 125.849C217.132 127.359 215.138 129.473 213.749 132.192C212.359 134.91 211.664 138.172 211.664 141.978V167.169H207.134V139.894C207.134 134.578 205.835 130.531 203.237 127.752C200.64 124.973 197.015 123.583 192.363 123.583C188.799 123.583 185.718 124.338 183.121 125.849C180.523 127.359 178.529 129.473 177.14 132.192C175.751 134.91 175.056 138.172 175.056 141.978V167.169H170.525V119.868H174.875V132.917L174.24 131.467C175.63 127.782 177.956 124.882 181.218 122.768C184.48 120.593 188.407 119.506 192.998 119.506C197.71 119.506 201.667 120.714 204.868 123.13C208.13 125.486 210.184 129.02 211.03 133.732L209.49 133.098C210.758 129.05 213.144 125.788 216.648 123.312C220.152 120.774 224.411 119.506 229.425 119.506Z" fill="white"/>
<path d="M277.143 201.739C263.631 232.164 239.914 256.996 210.034 272.002C180.154 287.008 145.96 291.26 113.277 284.034C80.5937 276.808 51.4447 258.551 30.7962 232.373C10.1477 206.195 -0.722626 173.717 0.0373057 140.472C0.797237 107.227 13.1404 75.2722 34.9638 50.0522C56.7872 24.8322 86.7404 7.90753 119.72 2.16196C152.699 -3.58361 186.664 2.20541 215.828 18.5426C244.991 34.8799 267.549 60.7545 279.657 91.7577L274.242 93.8437C262.62 64.0847 240.967 39.2485 212.974 23.5669C184.981 7.88537 152.379 2.32868 120.723 7.84366C89.0675 13.3586 60.3164 29.6041 39.3689 53.8119C18.4213 78.0198 6.57349 108.692 5.84406 140.603C5.11462 172.514 15.5487 203.689 35.3685 228.816C55.1883 253.943 83.1675 271.467 114.539 278.403C145.91 285.339 178.732 281.258 207.413 266.854C236.094 252.45 258.859 228.615 271.829 199.411L277.143 201.739Z" fill="white"/>
<g clip-path="url(#clip0_1362_11)">
<path d="M237.002 212.442C233.178 212.442 230.067 209.251 230.067 205.33V78.8092C230.067 76.9605 231.516 73.4638 237.002 73.4638C245.706 73.4638 248.411 105.155 248.411 116.699C248.411 134.607 244.548 151.049 243.938 153.535V205.329C243.938 209.251 240.827 212.442 237.002 212.442ZM234.685 155.606V205.33C234.685 206.64 235.724 207.706 237.002 207.706C238.281 207.706 239.32 206.641 239.32 205.33V155.606H234.685ZM234.685 150.87H239.809C240.905 145.984 243.793 131.686 243.793 116.7C243.793 96.9289 239.261 79.8983 236.823 78.2021C235.399 78.2333 234.774 78.6387 234.686 78.9323L234.685 150.87ZM79.4171 212.442C77.69 212.442 76.0275 211.746 74.8564 210.534C73.7804 209.419 73.1948 207.967 73.2096 206.445L73.954 128.987C68.2886 126.745 64.1869 121.138 64.0566 114.588C64.0548 114.53 64.0557 114.47 64.0585 114.41L65.6425 78.7012C65.7006 77.3961 66.8053 76.4083 68.0531 76.4433C69.3277 76.503 70.3131 77.6102 70.255 78.9162L68.7809 112.15H72.8087L73.5495 78.7552C73.5781 77.4473 74.6652 76.4064 75.9102 76.4415C77.1857 76.4718 78.1952 77.5552 78.1657 78.8622L77.4295 112.151H81.4066L80.6686 78.8632C80.64 77.5562 81.6495 76.4727 82.9241 76.4424C84.1783 76.4026 85.2562 77.4482 85.2848 78.7561L86.0256 112.151H90.0534L88.5803 78.9171C88.5221 77.6111 89.5076 76.504 90.7821 76.4443C92.0447 76.395 93.1364 77.3961 93.1928 78.7022L94.7758 114.41C94.7786 114.47 94.7795 114.53 94.7777 114.588C94.6474 121.137 90.5457 126.745 84.8803 128.987L85.6256 206.445C85.6404 207.967 85.0549 209.419 83.9788 210.534C82.8068 211.746 81.1443 212.442 79.4171 212.442ZM78.5619 130.03L77.8276 206.49C77.8248 206.809 77.9948 207.054 78.138 207.201C78.7568 207.843 80.0766 207.842 80.6973 207.201C80.8404 207.053 81.0104 206.808 81.0076 206.49L80.2724 130.03H78.5619ZM68.9813 116.886C70.1414 121.695 74.4103 125.294 79.4171 125.294C84.425 125.294 88.6939 121.695 89.853 116.886H83.7692C83.7692 116.886 83.7664 116.886 83.7646 116.886H75.0697C75.0688 116.886 75.0688 116.886 75.0679 116.886C75.0679 116.886 75.067 116.886 75.066 116.886H68.9813ZM158.985 203.052C125.096 203.052 97.5245 174.78 97.5245 140.029C97.5245 105.278 125.096 77.0059 158.985 77.0059C192.875 77.0059 220.447 105.278 220.447 140.029C220.447 174.78 192.876 203.052 158.985 203.052ZM158.985 81.7404C127.641 81.7404 102.143 107.889 102.143 140.028C102.143 172.168 127.641 198.316 158.985 198.316C190.329 198.316 215.829 172.168 215.829 140.028C215.829 107.889 190.329 81.7404 158.985 81.7404ZM158.985 185.907C134.315 185.907 114.245 165.326 114.245 140.029C114.245 114.732 134.315 94.1511 158.985 94.1511C183.656 94.1511 203.726 114.732 203.726 140.029C203.726 165.326 183.656 185.907 158.985 185.907ZM158.985 98.8856C136.861 98.8856 118.863 117.342 118.863 140.028C118.863 162.714 136.861 181.171 158.985 181.171C181.109 181.171 199.108 162.714 199.108 140.028C199.108 117.342 181.109 98.8856 158.985 98.8856Z" fill="white"/>
</g>
<g clip-path="url(#clip1_1362_11)">
<path d="M119.889 212.855C123.418 212.855 126.289 209.717 126.289 205.861L126.289 81.4317C126.289 79.6135 124.951 76.1747 119.889 76.1747C111.858 76.1747 109.363 107.342 109.363 118.696C109.363 136.307 112.927 152.478 113.49 154.922V205.86C113.49 209.717 116.36 212.855 119.889 212.855ZM122.028 156.959V205.861C122.028 207.149 121.069 208.198 119.889 208.198C118.71 208.198 117.751 207.15 117.751 205.861V156.959H122.028ZM122.028 152.302H117.299C116.288 147.497 113.624 133.435 113.624 118.697C113.624 99.2519 117.805 82.5029 120.055 80.8347C121.369 80.8654 121.945 81.264 122.027 81.5528L122.028 152.302ZM265.292 212.855C266.886 212.855 268.42 212.172 269.501 210.979C270.493 209.883 271.034 208.454 271.02 206.957L270.333 130.78C275.561 128.575 279.345 123.061 279.465 116.619C279.467 116.562 279.466 116.503 279.464 116.444L278.002 81.3255C277.948 80.042 276.929 79.0705 275.778 79.105C274.602 79.1637 273.693 80.2525 273.746 81.537L275.106 114.221H271.39L270.706 81.3786C270.68 80.0923 269.677 79.0687 268.528 79.1031C267.351 79.1329 266.42 80.1985 266.447 81.4839L267.126 114.222H263.457L264.138 81.4848C264.164 80.1994 263.233 79.1339 262.057 79.104C260.899 79.0649 259.905 80.0932 259.878 81.3795L259.195 114.222H255.478L256.838 81.5379C256.891 80.2534 255.982 79.1646 254.806 79.1059C253.641 79.0575 252.634 80.042 252.582 81.3264L251.121 116.444C251.118 116.503 251.118 116.562 251.119 116.619C251.239 123.06 255.024 128.575 260.252 130.78L259.564 206.957C259.55 208.454 260.09 209.883 261.083 210.979C262.165 212.172 263.699 212.855 265.292 212.855ZM266.081 131.806L266.759 207.002C266.762 207.316 266.605 207.556 266.473 207.702C265.902 208.332 264.684 208.331 264.111 207.702C263.979 207.555 263.822 207.315 263.825 207.002L264.503 131.806H266.081ZM274.921 118.879C273.851 123.609 269.912 127.148 265.292 127.148C260.672 127.148 256.733 123.609 255.663 118.879H261.277C261.277 118.879 261.279 118.879 261.281 118.879H269.304C269.305 118.879 269.305 118.879 269.305 118.879C269.305 118.879 269.306 118.879 269.307 118.879H274.921ZM191.875 203.621C223.145 203.621 248.585 175.816 248.585 141.64C248.585 107.463 223.145 79.6582 191.875 79.6582C160.605 79.6582 135.165 107.463 135.165 141.64C135.165 175.816 160.604 203.621 191.875 203.621ZM191.875 84.3145C220.796 84.3145 244.324 110.03 244.324 141.639C244.324 173.247 220.796 198.963 191.875 198.963C162.955 198.963 139.426 173.247 139.426 141.639C139.426 110.03 162.955 84.3145 191.875 84.3145ZM191.875 186.759C214.639 186.759 233.157 166.518 233.157 141.64C233.157 116.761 214.639 96.52 191.875 96.52C169.112 96.52 150.594 116.761 150.594 141.64C150.594 166.518 169.112 186.759 191.875 186.759ZM191.875 101.176C212.289 101.176 228.896 119.328 228.896 141.639C228.896 163.949 212.289 182.101 191.875 182.101C171.462 182.101 154.855 163.949 154.855 141.639C154.855 119.328 171.462 101.176 191.875 101.176Z" fill="white"/>
</g>
<defs>
<clipPath id="clip0_1362_11">
<rect width="31.2466" height="189.042" fill="white" transform="translate(64.0557 48.4323)"/>
</clipPath>
<clipPath id="clip1_1362_11">
<rect width="18.748" height="185.917" fill="white" transform="matrix(-1 0 0 1 128.111 51.5569)"/>
</clipPath>
</defs>
</svg>
